M48
; DRILL file {KiCad 7.0.2} date Mon Jun 26 18:46:50 2023
; FORMAT={-:-/ absolute / metric / decimal}
; #@! TF.CreationDate,2023-06-26T18:46:50-03:00
; #@! TF.GenerationSoftware,Kicad,Pcbnew,7.0.2
; #@! TF.FileFunction,Plated,1,2,PTH
FMAT,2
METRIC
; #@! TA.AperFunction,Plated,PTH,ViaDrill
T1C0.305
; #@! TA.AperFunction,Plated,PTH,ComponentDrill
T2C1.000
; #@! TA.AperFunction,Plated,PTH,ComponentDrill
T3C2.400
; #@! TA.AperFunction,Plated,PTH,ComponentDrill
T4C2.500
%
G90
G05
T1
X83.82Y-101.6
X83.82Y-109.22
X83.82Y-116.84
X83.82Y-124.46
X91.44Y-101.6
X91.44Y-109.22
X91.44Y-116.84
X91.44Y-124.46
X95.25Y-69.85
X95.25Y-82.55
X99.06Y-109.22
X99.06Y-116.84
X99.06Y-124.46
X99.06Y-132.08
X99.06Y-137.16
X101.6Y-76.2
X101.6Y-88.9
X106.68Y-101.6
X106.68Y-109.22
X106.68Y-116.84
X106.68Y-124.46
X106.68Y-132.08
X106.68Y-137.16
X107.95Y-82.55
X111.76Y-113.03
X114.3Y-76.2
X114.3Y-88.9
X114.3Y-132.08
X114.3Y-137.16
X116.84Y-113.03
X120.65Y-69.85
X120.65Y-82.55
X121.92Y-99.06
X121.92Y-101.6
X121.92Y-104.14
X121.92Y-132.08
X121.92Y-137.16
X122.555Y-118.745
X125.73Y-129.54
X125.73Y-132.08
X125.73Y-137.16
X127.0Y-76.2
X127.635Y-118.745
X129.54Y-129.54
X132.041Y-116.593
X133.35Y-69.85
X133.35Y-82.55
X133.985Y-107.315
X133.985Y-118.11
X135.811Y-116.162
X136.071Y-104.942
X137.795Y-115.57
X138.43Y-109.22
X139.401Y-96.132
X139.7Y-66.04
X139.7Y-71.12
X139.7Y-76.2
X139.7Y-137.16
X140.591Y-131.042
X142.24Y-109.22
X144.78Y-66.04
X144.78Y-71.12
X147.955Y-126.365
X148.161Y-121.522
X148.961Y-95.483
X149.86Y-66.04
X149.86Y-71.12
X150.751Y-84.932
X151.13Y-128.905
X154.94Y-101.6
X154.971Y-98.782
X155.751Y-129.322
X156.591Y-127.0
X157.48Y-78.74
X157.48Y-83.82
X157.566Y-113.947
X158.242Y-127.0
X158.931Y-122.652
X160.655Y-125.73
X160.701Y-126.792
X162.501Y-119.122
X162.56Y-114.3
X162.56Y-115.57
X162.56Y-116.84
X163.068Y-120.904
X164.211Y-122.301
X164.211Y-123.825
X164.719Y-119.126
X165.1Y-111.76
X165.1Y-128.905
X165.354Y-120.904
X166.631Y-111.102
X167.601Y-106.612
X167.64Y-83.82
X167.64Y-128.905
X168.021Y-111.506
X169.35Y-123.97
X169.38Y-122.32
X169.401Y-101.302
X170.5Y-105.0
X170.5Y-107.0
X170.5Y-109.0
X170.64Y-101.65
X171.171Y-111.362
X171.5Y-106.0
X171.5Y-108.0
X171.51Y-101.71
X172.5Y-105.0
X172.5Y-107.0
X172.5Y-109.0
X172.671Y-112.733
X172.72Y-97.79
X173.5Y-106.0
X173.5Y-108.0
X174.401Y-130.572
X174.491Y-101.262
X174.491Y-102.222
X174.5Y-105.0
X174.5Y-107.0
X174.5Y-109.0
X176.53Y-97.79
X177.491Y-109.892
X177.731Y-106.522
X177.731Y-107.632
X177.731Y-108.722
X177.8Y-66.04
X177.8Y-73.66
X177.8Y-78.74
X177.8Y-83.82
X180.071Y-110.472
X180.34Y-130.81
X180.34Y-133.35
X180.42Y-113.33
X180.53Y-99.74
X181.61Y-137.16
X182.88Y-66.04
X182.88Y-71.12
X182.88Y-76.2
X182.88Y-81.28
X182.88Y-125.73
X182.88Y-128.27
X182.88Y-130.81
X184.15Y-134.62
X184.15Y-137.16
X184.361Y-106.535
X185.229Y-94.898
X187.96Y-66.04
X187.96Y-71.12
X187.96Y-76.2
X187.96Y-108.585
X190.211Y-105.362
X190.999Y-94.898
X191.82Y-81.64
X193.04Y-66.04
X193.04Y-71.12
X193.675Y-108.585
X196.041Y-111.752
X196.241Y-83.61
X196.739Y-94.898
X197.341Y-83.61
X198.12Y-66.04
X198.12Y-71.12
X198.441Y-83.61
X199.39Y-108.585
X200.641Y-83.61
X200.66Y-111.76
X202.479Y-94.898
X202.481Y-108.565
X202.841Y-83.61
X203.2Y-66.04
X203.2Y-71.12
X203.2Y-111.76
X203.2Y-114.3
X203.2Y-116.84
X203.2Y-119.38
X203.941Y-83.61
X205.74Y-111.76
X207.131Y-106.093
X208.219Y-94.898
X210.82Y-78.74
X210.82Y-83.82
X210.82Y-88.9
X210.82Y-92.71
X210.82Y-105.41
X210.82Y-109.22
X210.82Y-111.76
X213.251Y-107.645
X213.959Y-94.898
X215.9Y-78.74
X215.9Y-83.82
X215.9Y-88.9
X215.9Y-92.71
X217.17Y-106.68
X217.17Y-110.49
T2
X162.541Y-70.382
X165.081Y-70.382
X167.621Y-70.382
X170.161Y-70.382
T3
X85.981Y-74.153
X85.981Y-86.852
T4
X156.361Y-70.282G85X154.361Y-70.282
G05
X156.361Y-94.382G85X154.361Y-94.382
G05
X178.461Y-70.282G85X176.461Y-70.282
G05
X178.561Y-94.382G85X176.561Y-94.382
G05
T0
M30
