G04 #@! TF.GenerationSoftware,KiCad,Pcbnew,7.0.2*
G04 #@! TF.CreationDate,2023-06-26T18:45:37-03:00*
G04 #@! TF.ProjectId,ProjetoFinalSEMB,50726f6a-6574-46f4-9669-6e616c53454d,rev?*
G04 #@! TF.SameCoordinates,Original*
G04 #@! TF.FileFunction,Legend,Top*
G04 #@! TF.FilePolarity,Positive*
%FSLAX46Y46*%
G04 Gerber Fmt 4.6, Leading zero omitted, Abs format (unit mm)*
G04 Created by KiCad (PCBNEW 7.0.2) date 2023-06-26 18:45:37*
%MOMM*%
%LPD*%
G01*
G04 APERTURE LIST*
G04 Aperture macros list*
%AMRoundRect*
0 Rectangle with rounded corners*
0 $1 Rounding radius*
0 $2 $3 $4 $5 $6 $7 $8 $9 X,Y pos of 4 corners*
0 Add a 4 corners polygon primitive as box body*
4,1,4,$2,$3,$4,$5,$6,$7,$8,$9,$2,$3,0*
0 Add four circle primitives for the rounded corners*
1,1,$1+$1,$2,$3*
1,1,$1+$1,$4,$5*
1,1,$1+$1,$6,$7*
1,1,$1+$1,$8,$9*
0 Add four rect primitives between the rounded corners*
20,1,$1+$1,$2,$3,$4,$5,0*
20,1,$1+$1,$4,$5,$6,$7,0*
20,1,$1+$1,$6,$7,$8,$9,0*
20,1,$1+$1,$8,$9,$2,$3,0*%
G04 Aperture macros list end*
%ADD10C,0.254000*%
%ADD11C,0.200000*%
%ADD12C,0.150000*%
%ADD13C,0.160000*%
%ADD14C,0.180000*%
%ADD15C,0.100000*%
%ADD16C,0.120000*%
%ADD17R,1.450000X2.900000*%
%ADD18C,2.600000*%
%ADD19R,3.600000X3.600000*%
%ADD20C,3.600000*%
%ADD21R,1.250000X1.500000*%
%ADD22R,2.900000X1.450000*%
%ADD23RoundRect,0.062500X-0.375000X-0.062500X0.375000X-0.062500X0.375000X0.062500X-0.375000X0.062500X0*%
%ADD24RoundRect,0.062500X-0.062500X-0.375000X0.062500X-0.375000X0.062500X0.375000X-0.062500X0.375000X0*%
%ADD25R,5.600000X5.600000*%
%ADD26R,0.600000X0.500000*%
%ADD27C,3.200000*%
%ADD28R,2.900000X1.300000*%
%ADD29R,1.000000X0.700000*%
%ADD30R,2.720000X1.020000*%
%ADD31O,4.680000X2.690000*%
%ADD32O,1.600000X2.000000*%
%ADD33R,1.020000X2.720000*%
%ADD34R,1.900000X5.400000*%
%ADD35R,1.270000X2.030000*%
%ADD36R,1.800000X1.150000*%
%ADD37R,5.400000X1.900000*%
%ADD38R,1.500000X1.250000*%
%ADD39RoundRect,0.250000X-0.350000X0.850000X-0.350000X-0.850000X0.350000X-0.850000X0.350000X0.850000X0*%
%ADD40RoundRect,0.249997X-2.650003X2.950003X-2.650003X-2.950003X2.650003X-2.950003X2.650003X2.950003X0*%
%ADD41R,1.150000X1.800000*%
%ADD42R,0.700000X1.750000*%
%ADD43R,1.450000X1.000000*%
%ADD44R,1.000000X1.550000*%
%ADD45R,0.800000X1.500000*%
%ADD46R,1.300000X1.500000*%
%ADD47R,1.500000X1.500000*%
%ADD48R,0.800000X1.400000*%
%ADD49R,1.500000X5.400000*%
%ADD50RoundRect,0.250000X0.850000X0.350000X-0.850000X0.350000X-0.850000X-0.350000X0.850000X-0.350000X0*%
%ADD51RoundRect,0.249997X2.950003X2.650003X-2.950003X2.650003X-2.950003X-2.650003X2.950003X-2.650003X0*%
%ADD52R,1.475000X0.450000*%
G04 APERTURE END LIST*
D10*
X170151633Y-116380026D02*
X169728299Y-115775264D01*
X169425918Y-116380026D02*
X169425918Y-115110026D01*
X169425918Y-115110026D02*
X169909728Y-115110026D01*
X169909728Y-115110026D02*
X170030680Y-115170502D01*
X170030680Y-115170502D02*
X170091157Y-115230978D01*
X170091157Y-115230978D02*
X170151633Y-115351930D01*
X170151633Y-115351930D02*
X170151633Y-115533359D01*
X170151633Y-115533359D02*
X170091157Y-115654311D01*
X170091157Y-115654311D02*
X170030680Y-115714788D01*
X170030680Y-115714788D02*
X169909728Y-115775264D01*
X169909728Y-115775264D02*
X169425918Y-115775264D01*
X170574966Y-115110026D02*
X171361157Y-115110026D01*
X171361157Y-115110026D02*
X170937823Y-115593835D01*
X170937823Y-115593835D02*
X171119252Y-115593835D01*
X171119252Y-115593835D02*
X171240204Y-115654311D01*
X171240204Y-115654311D02*
X171300680Y-115714788D01*
X171300680Y-115714788D02*
X171361157Y-115835740D01*
X171361157Y-115835740D02*
X171361157Y-116138121D01*
X171361157Y-116138121D02*
X171300680Y-116259073D01*
X171300680Y-116259073D02*
X171240204Y-116319550D01*
X171240204Y-116319550D02*
X171119252Y-116380026D01*
X171119252Y-116380026D02*
X170756395Y-116380026D01*
X170756395Y-116380026D02*
X170635442Y-116319550D01*
X170635442Y-116319550D02*
X170574966Y-116259073D01*
X80503088Y-81650356D02*
X80563564Y-81468928D01*
X80563564Y-81468928D02*
X80624040Y-81408451D01*
X80624040Y-81408451D02*
X80744992Y-81347975D01*
X80744992Y-81347975D02*
X80926421Y-81347975D01*
X80926421Y-81347975D02*
X81047373Y-81408451D01*
X81047373Y-81408451D02*
X81107850Y-81468928D01*
X81107850Y-81468928D02*
X81168326Y-81589880D01*
X81168326Y-81589880D02*
X81168326Y-82073690D01*
X81168326Y-82073690D02*
X79898326Y-82073690D01*
X79898326Y-82073690D02*
X79898326Y-81650356D01*
X79898326Y-81650356D02*
X79958802Y-81529404D01*
X79958802Y-81529404D02*
X80019278Y-81468928D01*
X80019278Y-81468928D02*
X80140230Y-81408451D01*
X80140230Y-81408451D02*
X80261183Y-81408451D01*
X80261183Y-81408451D02*
X80382135Y-81468928D01*
X80382135Y-81468928D02*
X80442611Y-81529404D01*
X80442611Y-81529404D02*
X80503088Y-81650356D01*
X80503088Y-81650356D02*
X80503088Y-82073690D01*
X79898326Y-80985118D02*
X79898326Y-80259404D01*
X81168326Y-80622261D02*
X79898326Y-80622261D01*
X80019278Y-79896547D02*
X79958802Y-79836071D01*
X79958802Y-79836071D02*
X79898326Y-79715118D01*
X79898326Y-79715118D02*
X79898326Y-79412737D01*
X79898326Y-79412737D02*
X79958802Y-79291785D01*
X79958802Y-79291785D02*
X80019278Y-79231309D01*
X80019278Y-79231309D02*
X80140230Y-79170832D01*
X80140230Y-79170832D02*
X80261183Y-79170832D01*
X80261183Y-79170832D02*
X80442611Y-79231309D01*
X80442611Y-79231309D02*
X81168326Y-79957023D01*
X81168326Y-79957023D02*
X81168326Y-79170832D01*
D11*
X154806633Y-121170119D02*
X154473300Y-120693928D01*
X154235205Y-121170119D02*
X154235205Y-120170119D01*
X154235205Y-120170119D02*
X154616157Y-120170119D01*
X154616157Y-120170119D02*
X154711395Y-120217738D01*
X154711395Y-120217738D02*
X154759014Y-120265357D01*
X154759014Y-120265357D02*
X154806633Y-120360595D01*
X154806633Y-120360595D02*
X154806633Y-120503452D01*
X154806633Y-120503452D02*
X154759014Y-120598690D01*
X154759014Y-120598690D02*
X154711395Y-120646309D01*
X154711395Y-120646309D02*
X154616157Y-120693928D01*
X154616157Y-120693928D02*
X154235205Y-120693928D01*
X155663776Y-120503452D02*
X155663776Y-121170119D01*
X155425681Y-120122500D02*
X155187586Y-120836785D01*
X155187586Y-120836785D02*
X155806633Y-120836785D01*
D10*
X175874133Y-127200026D02*
X175450799Y-126595264D01*
X175148418Y-127200026D02*
X175148418Y-125930026D01*
X175148418Y-125930026D02*
X175632228Y-125930026D01*
X175632228Y-125930026D02*
X175753180Y-125990502D01*
X175753180Y-125990502D02*
X175813657Y-126050978D01*
X175813657Y-126050978D02*
X175874133Y-126171930D01*
X175874133Y-126171930D02*
X175874133Y-126353359D01*
X175874133Y-126353359D02*
X175813657Y-126474311D01*
X175813657Y-126474311D02*
X175753180Y-126534788D01*
X175753180Y-126534788D02*
X175632228Y-126595264D01*
X175632228Y-126595264D02*
X175148418Y-126595264D01*
X177083657Y-127200026D02*
X176357942Y-127200026D01*
X176720799Y-127200026D02*
X176720799Y-125930026D01*
X176720799Y-125930026D02*
X176599847Y-126111454D01*
X176599847Y-126111454D02*
X176478895Y-126232407D01*
X176478895Y-126232407D02*
X176357942Y-126292883D01*
X185808326Y-119073928D02*
X185203564Y-119497262D01*
X185808326Y-119799643D02*
X184538326Y-119799643D01*
X184538326Y-119799643D02*
X184538326Y-119315833D01*
X184538326Y-119315833D02*
X184598802Y-119194881D01*
X184598802Y-119194881D02*
X184659278Y-119134404D01*
X184659278Y-119134404D02*
X184780230Y-119073928D01*
X184780230Y-119073928D02*
X184961659Y-119073928D01*
X184961659Y-119073928D02*
X185082611Y-119134404D01*
X185082611Y-119134404D02*
X185143088Y-119194881D01*
X185143088Y-119194881D02*
X185203564Y-119315833D01*
X185203564Y-119315833D02*
X185203564Y-119799643D01*
X185808326Y-117864404D02*
X185808326Y-118590119D01*
X185808326Y-118227262D02*
X184538326Y-118227262D01*
X184538326Y-118227262D02*
X184719754Y-118348214D01*
X184719754Y-118348214D02*
X184840707Y-118469166D01*
X184840707Y-118469166D02*
X184901183Y-118590119D01*
X184538326Y-116715357D02*
X184538326Y-117320119D01*
X184538326Y-117320119D02*
X185143088Y-117380595D01*
X185143088Y-117380595D02*
X185082611Y-117320119D01*
X185082611Y-117320119D02*
X185022135Y-117199166D01*
X185022135Y-117199166D02*
X185022135Y-116896785D01*
X185022135Y-116896785D02*
X185082611Y-116775833D01*
X185082611Y-116775833D02*
X185143088Y-116715357D01*
X185143088Y-116715357D02*
X185264040Y-116654880D01*
X185264040Y-116654880D02*
X185566421Y-116654880D01*
X185566421Y-116654880D02*
X185687373Y-116715357D01*
X185687373Y-116715357D02*
X185747850Y-116775833D01*
X185747850Y-116775833D02*
X185808326Y-116896785D01*
X185808326Y-116896785D02*
X185808326Y-117199166D01*
X185808326Y-117199166D02*
X185747850Y-117320119D01*
X185747850Y-117320119D02*
X185687373Y-117380595D01*
X129663326Y-111123928D02*
X129058564Y-111547262D01*
X129663326Y-111849643D02*
X128393326Y-111849643D01*
X128393326Y-111849643D02*
X128393326Y-111365833D01*
X128393326Y-111365833D02*
X128453802Y-111244881D01*
X128453802Y-111244881D02*
X128514278Y-111184404D01*
X128514278Y-111184404D02*
X128635230Y-111123928D01*
X128635230Y-111123928D02*
X128816659Y-111123928D01*
X128816659Y-111123928D02*
X128937611Y-111184404D01*
X128937611Y-111184404D02*
X128998088Y-111244881D01*
X128998088Y-111244881D02*
X129058564Y-111365833D01*
X129058564Y-111365833D02*
X129058564Y-111849643D01*
X129663326Y-109914404D02*
X129663326Y-110640119D01*
X129663326Y-110277262D02*
X128393326Y-110277262D01*
X128393326Y-110277262D02*
X128574754Y-110398214D01*
X128574754Y-110398214D02*
X128695707Y-110519166D01*
X128695707Y-110519166D02*
X128756183Y-110640119D01*
X128393326Y-109128214D02*
X128393326Y-109007261D01*
X128393326Y-109007261D02*
X128453802Y-108886309D01*
X128453802Y-108886309D02*
X128514278Y-108825833D01*
X128514278Y-108825833D02*
X128635230Y-108765357D01*
X128635230Y-108765357D02*
X128877135Y-108704880D01*
X128877135Y-108704880D02*
X129179516Y-108704880D01*
X129179516Y-108704880D02*
X129421421Y-108765357D01*
X129421421Y-108765357D02*
X129542373Y-108825833D01*
X129542373Y-108825833D02*
X129602850Y-108886309D01*
X129602850Y-108886309D02*
X129663326Y-109007261D01*
X129663326Y-109007261D02*
X129663326Y-109128214D01*
X129663326Y-109128214D02*
X129602850Y-109249166D01*
X129602850Y-109249166D02*
X129542373Y-109309642D01*
X129542373Y-109309642D02*
X129421421Y-109370119D01*
X129421421Y-109370119D02*
X129179516Y-109430595D01*
X129179516Y-109430595D02*
X128877135Y-109430595D01*
X128877135Y-109430595D02*
X128635230Y-109370119D01*
X128635230Y-109370119D02*
X128514278Y-109309642D01*
X128514278Y-109309642D02*
X128453802Y-109249166D01*
X128453802Y-109249166D02*
X128393326Y-109128214D01*
X143996871Y-84760026D02*
X143573537Y-84155264D01*
X143271156Y-84760026D02*
X143271156Y-83490026D01*
X143271156Y-83490026D02*
X143754966Y-83490026D01*
X143754966Y-83490026D02*
X143875918Y-83550502D01*
X143875918Y-83550502D02*
X143936395Y-83610978D01*
X143936395Y-83610978D02*
X143996871Y-83731930D01*
X143996871Y-83731930D02*
X143996871Y-83913359D01*
X143996871Y-83913359D02*
X143936395Y-84034311D01*
X143936395Y-84034311D02*
X143875918Y-84094788D01*
X143875918Y-84094788D02*
X143754966Y-84155264D01*
X143754966Y-84155264D02*
X143271156Y-84155264D01*
X144480680Y-83610978D02*
X144541156Y-83550502D01*
X144541156Y-83550502D02*
X144662109Y-83490026D01*
X144662109Y-83490026D02*
X144964490Y-83490026D01*
X144964490Y-83490026D02*
X145085442Y-83550502D01*
X145085442Y-83550502D02*
X145145918Y-83610978D01*
X145145918Y-83610978D02*
X145206395Y-83731930D01*
X145206395Y-83731930D02*
X145206395Y-83852883D01*
X145206395Y-83852883D02*
X145145918Y-84034311D01*
X145145918Y-84034311D02*
X144420204Y-84760026D01*
X144420204Y-84760026D02*
X145206395Y-84760026D01*
X145629728Y-83490026D02*
X146415919Y-83490026D01*
X146415919Y-83490026D02*
X145992585Y-83973835D01*
X145992585Y-83973835D02*
X146174014Y-83973835D01*
X146174014Y-83973835D02*
X146294966Y-84034311D01*
X146294966Y-84034311D02*
X146355442Y-84094788D01*
X146355442Y-84094788D02*
X146415919Y-84215740D01*
X146415919Y-84215740D02*
X146415919Y-84518121D01*
X146415919Y-84518121D02*
X146355442Y-84639073D01*
X146355442Y-84639073D02*
X146294966Y-84699550D01*
X146294966Y-84699550D02*
X146174014Y-84760026D01*
X146174014Y-84760026D02*
X145811157Y-84760026D01*
X145811157Y-84760026D02*
X145690204Y-84699550D01*
X145690204Y-84699550D02*
X145629728Y-84639073D01*
X156508418Y-116535026D02*
X156508418Y-115265026D01*
X156508418Y-115265026D02*
X156810799Y-115265026D01*
X156810799Y-115265026D02*
X156992228Y-115325502D01*
X156992228Y-115325502D02*
X157113180Y-115446454D01*
X157113180Y-115446454D02*
X157173657Y-115567407D01*
X157173657Y-115567407D02*
X157234133Y-115809311D01*
X157234133Y-115809311D02*
X157234133Y-115990740D01*
X157234133Y-115990740D02*
X157173657Y-116232645D01*
X157173657Y-116232645D02*
X157113180Y-116353597D01*
X157113180Y-116353597D02*
X156992228Y-116474550D01*
X156992228Y-116474550D02*
X156810799Y-116535026D01*
X156810799Y-116535026D02*
X156508418Y-116535026D01*
X157717942Y-115385978D02*
X157778418Y-115325502D01*
X157778418Y-115325502D02*
X157899371Y-115265026D01*
X157899371Y-115265026D02*
X158201752Y-115265026D01*
X158201752Y-115265026D02*
X158322704Y-115325502D01*
X158322704Y-115325502D02*
X158383180Y-115385978D01*
X158383180Y-115385978D02*
X158443657Y-115506930D01*
X158443657Y-115506930D02*
X158443657Y-115627883D01*
X158443657Y-115627883D02*
X158383180Y-115809311D01*
X158383180Y-115809311D02*
X157657466Y-116535026D01*
X157657466Y-116535026D02*
X158443657Y-116535026D01*
X191588726Y-119073928D02*
X190983964Y-119497262D01*
X191588726Y-119799643D02*
X190318726Y-119799643D01*
X190318726Y-119799643D02*
X190318726Y-119315833D01*
X190318726Y-119315833D02*
X190379202Y-119194881D01*
X190379202Y-119194881D02*
X190439678Y-119134404D01*
X190439678Y-119134404D02*
X190560630Y-119073928D01*
X190560630Y-119073928D02*
X190742059Y-119073928D01*
X190742059Y-119073928D02*
X190863011Y-119134404D01*
X190863011Y-119134404D02*
X190923488Y-119194881D01*
X190923488Y-119194881D02*
X190983964Y-119315833D01*
X190983964Y-119315833D02*
X190983964Y-119799643D01*
X191588726Y-117864404D02*
X191588726Y-118590119D01*
X191588726Y-118227262D02*
X190318726Y-118227262D01*
X190318726Y-118227262D02*
X190500154Y-118348214D01*
X190500154Y-118348214D02*
X190621107Y-118469166D01*
X190621107Y-118469166D02*
X190681583Y-118590119D01*
X190742059Y-116775833D02*
X191588726Y-116775833D01*
X190258250Y-117078214D02*
X191165392Y-117380595D01*
X191165392Y-117380595D02*
X191165392Y-116594404D01*
D12*
X210697466Y-67245119D02*
X210364133Y-66768928D01*
X210126038Y-67245119D02*
X210126038Y-66245119D01*
X210126038Y-66245119D02*
X210506990Y-66245119D01*
X210506990Y-66245119D02*
X210602228Y-66292738D01*
X210602228Y-66292738D02*
X210649847Y-66340357D01*
X210649847Y-66340357D02*
X210697466Y-66435595D01*
X210697466Y-66435595D02*
X210697466Y-66578452D01*
X210697466Y-66578452D02*
X210649847Y-66673690D01*
X210649847Y-66673690D02*
X210602228Y-66721309D01*
X210602228Y-66721309D02*
X210506990Y-66768928D01*
X210506990Y-66768928D02*
X210126038Y-66768928D01*
X211126038Y-66721309D02*
X211459371Y-66721309D01*
X211602228Y-67245119D02*
X211126038Y-67245119D01*
X211126038Y-67245119D02*
X211126038Y-66245119D01*
X211126038Y-66245119D02*
X211602228Y-66245119D01*
X212364133Y-66721309D02*
X212030800Y-66721309D01*
X212030800Y-67245119D02*
X212030800Y-66245119D01*
X212030800Y-66245119D02*
X212506990Y-66245119D01*
X213030800Y-66245119D02*
X213030800Y-66483214D01*
X212792705Y-66387976D02*
X213030800Y-66483214D01*
X213030800Y-66483214D02*
X213268895Y-66387976D01*
X212887943Y-66673690D02*
X213030800Y-66483214D01*
X213030800Y-66483214D02*
X213173657Y-66673690D01*
X213792705Y-66245119D02*
X213792705Y-66483214D01*
X213554610Y-66387976D02*
X213792705Y-66483214D01*
X213792705Y-66483214D02*
X214030800Y-66387976D01*
X213649848Y-66673690D02*
X213792705Y-66483214D01*
X213792705Y-66483214D02*
X213935562Y-66673690D01*
D11*
X154806633Y-125070119D02*
X154473300Y-124593928D01*
X154235205Y-125070119D02*
X154235205Y-124070119D01*
X154235205Y-124070119D02*
X154616157Y-124070119D01*
X154616157Y-124070119D02*
X154711395Y-124117738D01*
X154711395Y-124117738D02*
X154759014Y-124165357D01*
X154759014Y-124165357D02*
X154806633Y-124260595D01*
X154806633Y-124260595D02*
X154806633Y-124403452D01*
X154806633Y-124403452D02*
X154759014Y-124498690D01*
X154759014Y-124498690D02*
X154711395Y-124546309D01*
X154711395Y-124546309D02*
X154616157Y-124593928D01*
X154616157Y-124593928D02*
X154235205Y-124593928D01*
X155711395Y-124070119D02*
X155235205Y-124070119D01*
X155235205Y-124070119D02*
X155187586Y-124546309D01*
X155187586Y-124546309D02*
X155235205Y-124498690D01*
X155235205Y-124498690D02*
X155330443Y-124451071D01*
X155330443Y-124451071D02*
X155568538Y-124451071D01*
X155568538Y-124451071D02*
X155663776Y-124498690D01*
X155663776Y-124498690D02*
X155711395Y-124546309D01*
X155711395Y-124546309D02*
X155759014Y-124641547D01*
X155759014Y-124641547D02*
X155759014Y-124879642D01*
X155759014Y-124879642D02*
X155711395Y-124974880D01*
X155711395Y-124974880D02*
X155663776Y-125022500D01*
X155663776Y-125022500D02*
X155568538Y-125070119D01*
X155568538Y-125070119D02*
X155330443Y-125070119D01*
X155330443Y-125070119D02*
X155235205Y-125022500D01*
X155235205Y-125022500D02*
X155187586Y-124974880D01*
D10*
X136793326Y-125679166D02*
X136188564Y-126102500D01*
X136793326Y-126404881D02*
X135523326Y-126404881D01*
X135523326Y-126404881D02*
X135523326Y-125921071D01*
X135523326Y-125921071D02*
X135583802Y-125800119D01*
X135583802Y-125800119D02*
X135644278Y-125739642D01*
X135644278Y-125739642D02*
X135765230Y-125679166D01*
X135765230Y-125679166D02*
X135946659Y-125679166D01*
X135946659Y-125679166D02*
X136067611Y-125739642D01*
X136067611Y-125739642D02*
X136128088Y-125800119D01*
X136128088Y-125800119D02*
X136188564Y-125921071D01*
X136188564Y-125921071D02*
X136188564Y-126404881D01*
X135523326Y-125255833D02*
X135523326Y-124409166D01*
X135523326Y-124409166D02*
X136793326Y-124953452D01*
X131584371Y-102570026D02*
X131161037Y-101965264D01*
X130858656Y-102570026D02*
X130858656Y-101300026D01*
X130858656Y-101300026D02*
X131342466Y-101300026D01*
X131342466Y-101300026D02*
X131463418Y-101360502D01*
X131463418Y-101360502D02*
X131523895Y-101420978D01*
X131523895Y-101420978D02*
X131584371Y-101541930D01*
X131584371Y-101541930D02*
X131584371Y-101723359D01*
X131584371Y-101723359D02*
X131523895Y-101844311D01*
X131523895Y-101844311D02*
X131463418Y-101904788D01*
X131463418Y-101904788D02*
X131342466Y-101965264D01*
X131342466Y-101965264D02*
X130858656Y-101965264D01*
X132793895Y-102570026D02*
X132068180Y-102570026D01*
X132431037Y-102570026D02*
X132431037Y-101300026D01*
X132431037Y-101300026D02*
X132310085Y-101481454D01*
X132310085Y-101481454D02*
X132189133Y-101602407D01*
X132189133Y-101602407D02*
X132068180Y-101662883D01*
X133882466Y-101300026D02*
X133640561Y-101300026D01*
X133640561Y-101300026D02*
X133519609Y-101360502D01*
X133519609Y-101360502D02*
X133459133Y-101420978D01*
X133459133Y-101420978D02*
X133338180Y-101602407D01*
X133338180Y-101602407D02*
X133277704Y-101844311D01*
X133277704Y-101844311D02*
X133277704Y-102328121D01*
X133277704Y-102328121D02*
X133338180Y-102449073D01*
X133338180Y-102449073D02*
X133398657Y-102509550D01*
X133398657Y-102509550D02*
X133519609Y-102570026D01*
X133519609Y-102570026D02*
X133761514Y-102570026D01*
X133761514Y-102570026D02*
X133882466Y-102509550D01*
X133882466Y-102509550D02*
X133942942Y-102449073D01*
X133942942Y-102449073D02*
X134003419Y-102328121D01*
X134003419Y-102328121D02*
X134003419Y-102025740D01*
X134003419Y-102025740D02*
X133942942Y-101904788D01*
X133942942Y-101904788D02*
X133882466Y-101844311D01*
X133882466Y-101844311D02*
X133761514Y-101783835D01*
X133761514Y-101783835D02*
X133519609Y-101783835D01*
X133519609Y-101783835D02*
X133398657Y-101844311D01*
X133398657Y-101844311D02*
X133338180Y-101904788D01*
X133338180Y-101904788D02*
X133277704Y-102025740D01*
D11*
X214424219Y-100242857D02*
X213948028Y-100576190D01*
X214424219Y-100814285D02*
X213424219Y-100814285D01*
X213424219Y-100814285D02*
X213424219Y-100433333D01*
X213424219Y-100433333D02*
X213471838Y-100338095D01*
X213471838Y-100338095D02*
X213519457Y-100290476D01*
X213519457Y-100290476D02*
X213614695Y-100242857D01*
X213614695Y-100242857D02*
X213757552Y-100242857D01*
X213757552Y-100242857D02*
X213852790Y-100290476D01*
X213852790Y-100290476D02*
X213900409Y-100338095D01*
X213900409Y-100338095D02*
X213948028Y-100433333D01*
X213948028Y-100433333D02*
X213948028Y-100814285D01*
X213519457Y-99861904D02*
X213471838Y-99814285D01*
X213471838Y-99814285D02*
X213424219Y-99719047D01*
X213424219Y-99719047D02*
X213424219Y-99480952D01*
X213424219Y-99480952D02*
X213471838Y-99385714D01*
X213471838Y-99385714D02*
X213519457Y-99338095D01*
X213519457Y-99338095D02*
X213614695Y-99290476D01*
X213614695Y-99290476D02*
X213709933Y-99290476D01*
X213709933Y-99290476D02*
X213852790Y-99338095D01*
X213852790Y-99338095D02*
X214424219Y-99909523D01*
X214424219Y-99909523D02*
X214424219Y-99290476D01*
X213519457Y-98909523D02*
X213471838Y-98861904D01*
X213471838Y-98861904D02*
X213424219Y-98766666D01*
X213424219Y-98766666D02*
X213424219Y-98528571D01*
X213424219Y-98528571D02*
X213471838Y-98433333D01*
X213471838Y-98433333D02*
X213519457Y-98385714D01*
X213519457Y-98385714D02*
X213614695Y-98338095D01*
X213614695Y-98338095D02*
X213709933Y-98338095D01*
X213709933Y-98338095D02*
X213852790Y-98385714D01*
X213852790Y-98385714D02*
X214424219Y-98957142D01*
X214424219Y-98957142D02*
X214424219Y-98338095D01*
X208683819Y-100242857D02*
X208207628Y-100576190D01*
X208683819Y-100814285D02*
X207683819Y-100814285D01*
X207683819Y-100814285D02*
X207683819Y-100433333D01*
X207683819Y-100433333D02*
X207731438Y-100338095D01*
X207731438Y-100338095D02*
X207779057Y-100290476D01*
X207779057Y-100290476D02*
X207874295Y-100242857D01*
X207874295Y-100242857D02*
X208017152Y-100242857D01*
X208017152Y-100242857D02*
X208112390Y-100290476D01*
X208112390Y-100290476D02*
X208160009Y-100338095D01*
X208160009Y-100338095D02*
X208207628Y-100433333D01*
X208207628Y-100433333D02*
X208207628Y-100814285D01*
X207779057Y-99861904D02*
X207731438Y-99814285D01*
X207731438Y-99814285D02*
X207683819Y-99719047D01*
X207683819Y-99719047D02*
X207683819Y-99480952D01*
X207683819Y-99480952D02*
X207731438Y-99385714D01*
X207731438Y-99385714D02*
X207779057Y-99338095D01*
X207779057Y-99338095D02*
X207874295Y-99290476D01*
X207874295Y-99290476D02*
X207969533Y-99290476D01*
X207969533Y-99290476D02*
X208112390Y-99338095D01*
X208112390Y-99338095D02*
X208683819Y-99909523D01*
X208683819Y-99909523D02*
X208683819Y-99290476D01*
X208683819Y-98338095D02*
X208683819Y-98909523D01*
X208683819Y-98623809D02*
X207683819Y-98623809D01*
X207683819Y-98623809D02*
X207826676Y-98719047D01*
X207826676Y-98719047D02*
X207921914Y-98814285D01*
X207921914Y-98814285D02*
X207969533Y-98909523D01*
X197203019Y-100242857D02*
X196726828Y-100576190D01*
X197203019Y-100814285D02*
X196203019Y-100814285D01*
X196203019Y-100814285D02*
X196203019Y-100433333D01*
X196203019Y-100433333D02*
X196250638Y-100338095D01*
X196250638Y-100338095D02*
X196298257Y-100290476D01*
X196298257Y-100290476D02*
X196393495Y-100242857D01*
X196393495Y-100242857D02*
X196536352Y-100242857D01*
X196536352Y-100242857D02*
X196631590Y-100290476D01*
X196631590Y-100290476D02*
X196679209Y-100338095D01*
X196679209Y-100338095D02*
X196726828Y-100433333D01*
X196726828Y-100433333D02*
X196726828Y-100814285D01*
X197203019Y-99290476D02*
X197203019Y-99861904D01*
X197203019Y-99576190D02*
X196203019Y-99576190D01*
X196203019Y-99576190D02*
X196345876Y-99671428D01*
X196345876Y-99671428D02*
X196441114Y-99766666D01*
X196441114Y-99766666D02*
X196488733Y-99861904D01*
X197203019Y-98814285D02*
X197203019Y-98623809D01*
X197203019Y-98623809D02*
X197155400Y-98528571D01*
X197155400Y-98528571D02*
X197107780Y-98480952D01*
X197107780Y-98480952D02*
X196964923Y-98385714D01*
X196964923Y-98385714D02*
X196774447Y-98338095D01*
X196774447Y-98338095D02*
X196393495Y-98338095D01*
X196393495Y-98338095D02*
X196298257Y-98385714D01*
X196298257Y-98385714D02*
X196250638Y-98433333D01*
X196250638Y-98433333D02*
X196203019Y-98528571D01*
X196203019Y-98528571D02*
X196203019Y-98719047D01*
X196203019Y-98719047D02*
X196250638Y-98814285D01*
X196250638Y-98814285D02*
X196298257Y-98861904D01*
X196298257Y-98861904D02*
X196393495Y-98909523D01*
X196393495Y-98909523D02*
X196631590Y-98909523D01*
X196631590Y-98909523D02*
X196726828Y-98861904D01*
X196726828Y-98861904D02*
X196774447Y-98814285D01*
X196774447Y-98814285D02*
X196822066Y-98719047D01*
X196822066Y-98719047D02*
X196822066Y-98528571D01*
X196822066Y-98528571D02*
X196774447Y-98433333D01*
X196774447Y-98433333D02*
X196726828Y-98385714D01*
X196726828Y-98385714D02*
X196631590Y-98338095D01*
D10*
X143437466Y-96929550D02*
X143618895Y-96990026D01*
X143618895Y-96990026D02*
X143921276Y-96990026D01*
X143921276Y-96990026D02*
X144042228Y-96929550D01*
X144042228Y-96929550D02*
X144102704Y-96869073D01*
X144102704Y-96869073D02*
X144163181Y-96748121D01*
X144163181Y-96748121D02*
X144163181Y-96627169D01*
X144163181Y-96627169D02*
X144102704Y-96506216D01*
X144102704Y-96506216D02*
X144042228Y-96445740D01*
X144042228Y-96445740D02*
X143921276Y-96385264D01*
X143921276Y-96385264D02*
X143679371Y-96324788D01*
X143679371Y-96324788D02*
X143558419Y-96264311D01*
X143558419Y-96264311D02*
X143497942Y-96203835D01*
X143497942Y-96203835D02*
X143437466Y-96082883D01*
X143437466Y-96082883D02*
X143437466Y-95961930D01*
X143437466Y-95961930D02*
X143497942Y-95840978D01*
X143497942Y-95840978D02*
X143558419Y-95780502D01*
X143558419Y-95780502D02*
X143679371Y-95720026D01*
X143679371Y-95720026D02*
X143981752Y-95720026D01*
X143981752Y-95720026D02*
X144163181Y-95780502D01*
X144586514Y-95720026D02*
X144888895Y-96990026D01*
X144888895Y-96990026D02*
X145130800Y-96082883D01*
X145130800Y-96082883D02*
X145372705Y-96990026D01*
X145372705Y-96990026D02*
X145675086Y-95720026D01*
X146824134Y-96990026D02*
X146098419Y-96990026D01*
X146461276Y-96990026D02*
X146461276Y-95720026D01*
X146461276Y-95720026D02*
X146340324Y-95901454D01*
X146340324Y-95901454D02*
X146219372Y-96022407D01*
X146219372Y-96022407D02*
X146098419Y-96082883D01*
X143996871Y-91010026D02*
X143573537Y-90405264D01*
X143271156Y-91010026D02*
X143271156Y-89740026D01*
X143271156Y-89740026D02*
X143754966Y-89740026D01*
X143754966Y-89740026D02*
X143875918Y-89800502D01*
X143875918Y-89800502D02*
X143936395Y-89860978D01*
X143936395Y-89860978D02*
X143996871Y-89981930D01*
X143996871Y-89981930D02*
X143996871Y-90163359D01*
X143996871Y-90163359D02*
X143936395Y-90284311D01*
X143936395Y-90284311D02*
X143875918Y-90344788D01*
X143875918Y-90344788D02*
X143754966Y-90405264D01*
X143754966Y-90405264D02*
X143271156Y-90405264D01*
X144480680Y-89860978D02*
X144541156Y-89800502D01*
X144541156Y-89800502D02*
X144662109Y-89740026D01*
X144662109Y-89740026D02*
X144964490Y-89740026D01*
X144964490Y-89740026D02*
X145085442Y-89800502D01*
X145085442Y-89800502D02*
X145145918Y-89860978D01*
X145145918Y-89860978D02*
X145206395Y-89981930D01*
X145206395Y-89981930D02*
X145206395Y-90102883D01*
X145206395Y-90102883D02*
X145145918Y-90284311D01*
X145145918Y-90284311D02*
X144420204Y-91010026D01*
X144420204Y-91010026D02*
X145206395Y-91010026D01*
X146294966Y-90163359D02*
X146294966Y-91010026D01*
X145992585Y-89679550D02*
X145690204Y-90586692D01*
X145690204Y-90586692D02*
X146476395Y-90586692D01*
D11*
X202943419Y-100242857D02*
X202467228Y-100576190D01*
X202943419Y-100814285D02*
X201943419Y-100814285D01*
X201943419Y-100814285D02*
X201943419Y-100433333D01*
X201943419Y-100433333D02*
X201991038Y-100338095D01*
X201991038Y-100338095D02*
X202038657Y-100290476D01*
X202038657Y-100290476D02*
X202133895Y-100242857D01*
X202133895Y-100242857D02*
X202276752Y-100242857D01*
X202276752Y-100242857D02*
X202371990Y-100290476D01*
X202371990Y-100290476D02*
X202419609Y-100338095D01*
X202419609Y-100338095D02*
X202467228Y-100433333D01*
X202467228Y-100433333D02*
X202467228Y-100814285D01*
X202038657Y-99861904D02*
X201991038Y-99814285D01*
X201991038Y-99814285D02*
X201943419Y-99719047D01*
X201943419Y-99719047D02*
X201943419Y-99480952D01*
X201943419Y-99480952D02*
X201991038Y-99385714D01*
X201991038Y-99385714D02*
X202038657Y-99338095D01*
X202038657Y-99338095D02*
X202133895Y-99290476D01*
X202133895Y-99290476D02*
X202229133Y-99290476D01*
X202229133Y-99290476D02*
X202371990Y-99338095D01*
X202371990Y-99338095D02*
X202943419Y-99909523D01*
X202943419Y-99909523D02*
X202943419Y-99290476D01*
X201943419Y-98671428D02*
X201943419Y-98576190D01*
X201943419Y-98576190D02*
X201991038Y-98480952D01*
X201991038Y-98480952D02*
X202038657Y-98433333D01*
X202038657Y-98433333D02*
X202133895Y-98385714D01*
X202133895Y-98385714D02*
X202324371Y-98338095D01*
X202324371Y-98338095D02*
X202562466Y-98338095D01*
X202562466Y-98338095D02*
X202752942Y-98385714D01*
X202752942Y-98385714D02*
X202848180Y-98433333D01*
X202848180Y-98433333D02*
X202895800Y-98480952D01*
X202895800Y-98480952D02*
X202943419Y-98576190D01*
X202943419Y-98576190D02*
X202943419Y-98671428D01*
X202943419Y-98671428D02*
X202895800Y-98766666D01*
X202895800Y-98766666D02*
X202848180Y-98814285D01*
X202848180Y-98814285D02*
X202752942Y-98861904D01*
X202752942Y-98861904D02*
X202562466Y-98909523D01*
X202562466Y-98909523D02*
X202324371Y-98909523D01*
X202324371Y-98909523D02*
X202133895Y-98861904D01*
X202133895Y-98861904D02*
X202038657Y-98814285D01*
X202038657Y-98814285D02*
X201991038Y-98766666D01*
X201991038Y-98766666D02*
X201943419Y-98671428D01*
D10*
X214558326Y-119106428D02*
X213953564Y-119529762D01*
X214558326Y-119832143D02*
X213288326Y-119832143D01*
X213288326Y-119832143D02*
X213288326Y-119348333D01*
X213288326Y-119348333D02*
X213348802Y-119227381D01*
X213348802Y-119227381D02*
X213409278Y-119166904D01*
X213409278Y-119166904D02*
X213530230Y-119106428D01*
X213530230Y-119106428D02*
X213711659Y-119106428D01*
X213711659Y-119106428D02*
X213832611Y-119166904D01*
X213832611Y-119166904D02*
X213893088Y-119227381D01*
X213893088Y-119227381D02*
X213953564Y-119348333D01*
X213953564Y-119348333D02*
X213953564Y-119832143D01*
X214558326Y-117896904D02*
X214558326Y-118622619D01*
X214558326Y-118259762D02*
X213288326Y-118259762D01*
X213288326Y-118259762D02*
X213469754Y-118380714D01*
X213469754Y-118380714D02*
X213590707Y-118501666D01*
X213590707Y-118501666D02*
X213651183Y-118622619D01*
X214558326Y-116687380D02*
X214558326Y-117413095D01*
X214558326Y-117050238D02*
X213288326Y-117050238D01*
X213288326Y-117050238D02*
X213469754Y-117171190D01*
X213469754Y-117171190D02*
X213590707Y-117292142D01*
X213590707Y-117292142D02*
X213651183Y-117413095D01*
X175874133Y-121720026D02*
X175450799Y-121115264D01*
X175148418Y-121720026D02*
X175148418Y-120450026D01*
X175148418Y-120450026D02*
X175632228Y-120450026D01*
X175632228Y-120450026D02*
X175753180Y-120510502D01*
X175753180Y-120510502D02*
X175813657Y-120570978D01*
X175813657Y-120570978D02*
X175874133Y-120691930D01*
X175874133Y-120691930D02*
X175874133Y-120873359D01*
X175874133Y-120873359D02*
X175813657Y-120994311D01*
X175813657Y-120994311D02*
X175753180Y-121054788D01*
X175753180Y-121054788D02*
X175632228Y-121115264D01*
X175632228Y-121115264D02*
X175148418Y-121115264D01*
X176357942Y-120570978D02*
X176418418Y-120510502D01*
X176418418Y-120510502D02*
X176539371Y-120450026D01*
X176539371Y-120450026D02*
X176841752Y-120450026D01*
X176841752Y-120450026D02*
X176962704Y-120510502D01*
X176962704Y-120510502D02*
X177023180Y-120570978D01*
X177023180Y-120570978D02*
X177083657Y-120691930D01*
X177083657Y-120691930D02*
X177083657Y-120812883D01*
X177083657Y-120812883D02*
X177023180Y-120994311D01*
X177023180Y-120994311D02*
X176297466Y-121720026D01*
X176297466Y-121720026D02*
X177083657Y-121720026D01*
D13*
X167067467Y-98136404D02*
X167029371Y-98174500D01*
X167029371Y-98174500D02*
X166915086Y-98212595D01*
X166915086Y-98212595D02*
X166838895Y-98212595D01*
X166838895Y-98212595D02*
X166724609Y-98174500D01*
X166724609Y-98174500D02*
X166648419Y-98098309D01*
X166648419Y-98098309D02*
X166610324Y-98022119D01*
X166610324Y-98022119D02*
X166572228Y-97869738D01*
X166572228Y-97869738D02*
X166572228Y-97755452D01*
X166572228Y-97755452D02*
X166610324Y-97603071D01*
X166610324Y-97603071D02*
X166648419Y-97526880D01*
X166648419Y-97526880D02*
X166724609Y-97450690D01*
X166724609Y-97450690D02*
X166838895Y-97412595D01*
X166838895Y-97412595D02*
X166915086Y-97412595D01*
X166915086Y-97412595D02*
X167029371Y-97450690D01*
X167029371Y-97450690D02*
X167067467Y-97488785D01*
X167753181Y-97679261D02*
X167753181Y-98212595D01*
X167562705Y-97374500D02*
X167372228Y-97945928D01*
X167372228Y-97945928D02*
X167867467Y-97945928D01*
D10*
X160042704Y-67750026D02*
X160042704Y-66480026D01*
X160042704Y-66480026D02*
X160345085Y-66480026D01*
X160345085Y-66480026D02*
X160526514Y-66540502D01*
X160526514Y-66540502D02*
X160647466Y-66661454D01*
X160647466Y-66661454D02*
X160707943Y-66782407D01*
X160707943Y-66782407D02*
X160768419Y-67024311D01*
X160768419Y-67024311D02*
X160768419Y-67205740D01*
X160768419Y-67205740D02*
X160707943Y-67447645D01*
X160707943Y-67447645D02*
X160647466Y-67568597D01*
X160647466Y-67568597D02*
X160526514Y-67689550D01*
X160526514Y-67689550D02*
X160345085Y-67750026D01*
X160345085Y-67750026D02*
X160042704Y-67750026D01*
X161312704Y-67750026D02*
X161312704Y-66903359D01*
X161312704Y-66480026D02*
X161252228Y-66540502D01*
X161252228Y-66540502D02*
X161312704Y-66600978D01*
X161312704Y-66600978D02*
X161373181Y-66540502D01*
X161373181Y-66540502D02*
X161312704Y-66480026D01*
X161312704Y-66480026D02*
X161312704Y-66600978D01*
X161856990Y-67689550D02*
X161977943Y-67750026D01*
X161977943Y-67750026D02*
X162219847Y-67750026D01*
X162219847Y-67750026D02*
X162340800Y-67689550D01*
X162340800Y-67689550D02*
X162401276Y-67568597D01*
X162401276Y-67568597D02*
X162401276Y-67508121D01*
X162401276Y-67508121D02*
X162340800Y-67387169D01*
X162340800Y-67387169D02*
X162219847Y-67326692D01*
X162219847Y-67326692D02*
X162038419Y-67326692D01*
X162038419Y-67326692D02*
X161917466Y-67266216D01*
X161917466Y-67266216D02*
X161856990Y-67145264D01*
X161856990Y-67145264D02*
X161856990Y-67084788D01*
X161856990Y-67084788D02*
X161917466Y-66963835D01*
X161917466Y-66963835D02*
X162038419Y-66903359D01*
X162038419Y-66903359D02*
X162219847Y-66903359D01*
X162219847Y-66903359D02*
X162340800Y-66963835D01*
X162945561Y-66903359D02*
X162945561Y-68173359D01*
X162945561Y-66963835D02*
X163066514Y-66903359D01*
X163066514Y-66903359D02*
X163308419Y-66903359D01*
X163308419Y-66903359D02*
X163429371Y-66963835D01*
X163429371Y-66963835D02*
X163489847Y-67024311D01*
X163489847Y-67024311D02*
X163550323Y-67145264D01*
X163550323Y-67145264D02*
X163550323Y-67508121D01*
X163550323Y-67508121D02*
X163489847Y-67629073D01*
X163489847Y-67629073D02*
X163429371Y-67689550D01*
X163429371Y-67689550D02*
X163308419Y-67750026D01*
X163308419Y-67750026D02*
X163066514Y-67750026D01*
X163066514Y-67750026D02*
X162945561Y-67689550D01*
X164276038Y-67750026D02*
X164155086Y-67689550D01*
X164155086Y-67689550D02*
X164094609Y-67568597D01*
X164094609Y-67568597D02*
X164094609Y-66480026D01*
X165304133Y-67750026D02*
X165304133Y-67084788D01*
X165304133Y-67084788D02*
X165243657Y-66963835D01*
X165243657Y-66963835D02*
X165122705Y-66903359D01*
X165122705Y-66903359D02*
X164880800Y-66903359D01*
X164880800Y-66903359D02*
X164759847Y-66963835D01*
X165304133Y-67689550D02*
X165183181Y-67750026D01*
X165183181Y-67750026D02*
X164880800Y-67750026D01*
X164880800Y-67750026D02*
X164759847Y-67689550D01*
X164759847Y-67689550D02*
X164699371Y-67568597D01*
X164699371Y-67568597D02*
X164699371Y-67447645D01*
X164699371Y-67447645D02*
X164759847Y-67326692D01*
X164759847Y-67326692D02*
X164880800Y-67266216D01*
X164880800Y-67266216D02*
X165183181Y-67266216D01*
X165183181Y-67266216D02*
X165304133Y-67205740D01*
X165787943Y-66903359D02*
X166090324Y-67750026D01*
X166392705Y-66903359D02*
X166090324Y-67750026D01*
X166090324Y-67750026D02*
X165969372Y-68052407D01*
X165969372Y-68052407D02*
X165908895Y-68112883D01*
X165908895Y-68112883D02*
X165787943Y-68173359D01*
X167118419Y-66480026D02*
X167360324Y-66480026D01*
X167360324Y-66480026D02*
X167481276Y-66540502D01*
X167481276Y-66540502D02*
X167602229Y-66661454D01*
X167602229Y-66661454D02*
X167662705Y-66903359D01*
X167662705Y-66903359D02*
X167662705Y-67326692D01*
X167662705Y-67326692D02*
X167602229Y-67568597D01*
X167602229Y-67568597D02*
X167481276Y-67689550D01*
X167481276Y-67689550D02*
X167360324Y-67750026D01*
X167360324Y-67750026D02*
X167118419Y-67750026D01*
X167118419Y-67750026D02*
X166997467Y-67689550D01*
X166997467Y-67689550D02*
X166876514Y-67568597D01*
X166876514Y-67568597D02*
X166816038Y-67326692D01*
X166816038Y-67326692D02*
X166816038Y-66903359D01*
X166816038Y-66903359D02*
X166876514Y-66661454D01*
X166876514Y-66661454D02*
X166997467Y-66540502D01*
X166997467Y-66540502D02*
X167118419Y-66480026D01*
X168811752Y-67750026D02*
X168206990Y-67750026D01*
X168206990Y-67750026D02*
X168206990Y-66480026D01*
X169235085Y-67084788D02*
X169658419Y-67084788D01*
X169839847Y-67750026D02*
X169235085Y-67750026D01*
X169235085Y-67750026D02*
X169235085Y-66480026D01*
X169235085Y-66480026D02*
X169839847Y-66480026D01*
X170384133Y-67750026D02*
X170384133Y-66480026D01*
X170384133Y-66480026D02*
X170686514Y-66480026D01*
X170686514Y-66480026D02*
X170867943Y-66540502D01*
X170867943Y-66540502D02*
X170988895Y-66661454D01*
X170988895Y-66661454D02*
X171049372Y-66782407D01*
X171049372Y-66782407D02*
X171109848Y-67024311D01*
X171109848Y-67024311D02*
X171109848Y-67205740D01*
X171109848Y-67205740D02*
X171049372Y-67447645D01*
X171049372Y-67447645D02*
X170988895Y-67568597D01*
X170988895Y-67568597D02*
X170867943Y-67689550D01*
X170867943Y-67689550D02*
X170686514Y-67750026D01*
X170686514Y-67750026D02*
X170384133Y-67750026D01*
X172319372Y-67750026D02*
X171593657Y-67750026D01*
X171956514Y-67750026D02*
X171956514Y-66480026D01*
X171956514Y-66480026D02*
X171835562Y-66661454D01*
X171835562Y-66661454D02*
X171714610Y-66782407D01*
X171714610Y-66782407D02*
X171593657Y-66842883D01*
D13*
X178357467Y-115296404D02*
X178319371Y-115334500D01*
X178319371Y-115334500D02*
X178205086Y-115372595D01*
X178205086Y-115372595D02*
X178128895Y-115372595D01*
X178128895Y-115372595D02*
X178014609Y-115334500D01*
X178014609Y-115334500D02*
X177938419Y-115258309D01*
X177938419Y-115258309D02*
X177900324Y-115182119D01*
X177900324Y-115182119D02*
X177862228Y-115029738D01*
X177862228Y-115029738D02*
X177862228Y-114915452D01*
X177862228Y-114915452D02*
X177900324Y-114763071D01*
X177900324Y-114763071D02*
X177938419Y-114686880D01*
X177938419Y-114686880D02*
X178014609Y-114610690D01*
X178014609Y-114610690D02*
X178128895Y-114572595D01*
X178128895Y-114572595D02*
X178205086Y-114572595D01*
X178205086Y-114572595D02*
X178319371Y-114610690D01*
X178319371Y-114610690D02*
X178357467Y-114648785D01*
X179081276Y-114572595D02*
X178700324Y-114572595D01*
X178700324Y-114572595D02*
X178662228Y-114953547D01*
X178662228Y-114953547D02*
X178700324Y-114915452D01*
X178700324Y-114915452D02*
X178776514Y-114877357D01*
X178776514Y-114877357D02*
X178966990Y-114877357D01*
X178966990Y-114877357D02*
X179043181Y-114915452D01*
X179043181Y-114915452D02*
X179081276Y-114953547D01*
X179081276Y-114953547D02*
X179119371Y-115029738D01*
X179119371Y-115029738D02*
X179119371Y-115220214D01*
X179119371Y-115220214D02*
X179081276Y-115296404D01*
X179081276Y-115296404D02*
X179043181Y-115334500D01*
X179043181Y-115334500D02*
X178966990Y-115372595D01*
X178966990Y-115372595D02*
X178776514Y-115372595D01*
X178776514Y-115372595D02*
X178700324Y-115334500D01*
X178700324Y-115334500D02*
X178662228Y-115296404D01*
D10*
X156949133Y-108599073D02*
X156888657Y-108659550D01*
X156888657Y-108659550D02*
X156707228Y-108720026D01*
X156707228Y-108720026D02*
X156586276Y-108720026D01*
X156586276Y-108720026D02*
X156404847Y-108659550D01*
X156404847Y-108659550D02*
X156283895Y-108538597D01*
X156283895Y-108538597D02*
X156223418Y-108417645D01*
X156223418Y-108417645D02*
X156162942Y-108175740D01*
X156162942Y-108175740D02*
X156162942Y-107994311D01*
X156162942Y-107994311D02*
X156223418Y-107752407D01*
X156223418Y-107752407D02*
X156283895Y-107631454D01*
X156283895Y-107631454D02*
X156404847Y-107510502D01*
X156404847Y-107510502D02*
X156586276Y-107450026D01*
X156586276Y-107450026D02*
X156707228Y-107450026D01*
X156707228Y-107450026D02*
X156888657Y-107510502D01*
X156888657Y-107510502D02*
X156949133Y-107570978D01*
X157372466Y-107450026D02*
X158219133Y-107450026D01*
X158219133Y-107450026D02*
X157674847Y-108720026D01*
D11*
X142083395Y-138235357D02*
X142083395Y-138616309D01*
X142083395Y-138616309D02*
X141283395Y-138616309D01*
X142083395Y-137968690D02*
X141283395Y-137968690D01*
X141283395Y-137968690D02*
X141283395Y-137778214D01*
X141283395Y-137778214D02*
X141321490Y-137663928D01*
X141321490Y-137663928D02*
X141397680Y-137587738D01*
X141397680Y-137587738D02*
X141473871Y-137549643D01*
X141473871Y-137549643D02*
X141626252Y-137511547D01*
X141626252Y-137511547D02*
X141740538Y-137511547D01*
X141740538Y-137511547D02*
X141892919Y-137549643D01*
X141892919Y-137549643D02*
X141969109Y-137587738D01*
X141969109Y-137587738D02*
X142045300Y-137663928D01*
X142045300Y-137663928D02*
X142083395Y-137778214D01*
X142083395Y-137778214D02*
X142083395Y-137968690D01*
X142083395Y-136711547D02*
X141702442Y-136978214D01*
X142083395Y-137168690D02*
X141283395Y-137168690D01*
X141283395Y-137168690D02*
X141283395Y-136863928D01*
X141283395Y-136863928D02*
X141321490Y-136787738D01*
X141321490Y-136787738D02*
X141359585Y-136749643D01*
X141359585Y-136749643D02*
X141435776Y-136711547D01*
X141435776Y-136711547D02*
X141550061Y-136711547D01*
X141550061Y-136711547D02*
X141626252Y-136749643D01*
X141626252Y-136749643D02*
X141664347Y-136787738D01*
X141664347Y-136787738D02*
X141702442Y-136863928D01*
X141702442Y-136863928D02*
X141702442Y-137168690D01*
X142045300Y-136406786D02*
X142083395Y-136330595D01*
X142083395Y-136330595D02*
X142083395Y-136178214D01*
X142083395Y-136178214D02*
X142045300Y-136102024D01*
X142045300Y-136102024D02*
X141969109Y-136063928D01*
X141969109Y-136063928D02*
X141931014Y-136063928D01*
X141931014Y-136063928D02*
X141854823Y-136102024D01*
X141854823Y-136102024D02*
X141816728Y-136178214D01*
X141816728Y-136178214D02*
X141816728Y-136292500D01*
X141816728Y-136292500D02*
X141778633Y-136368690D01*
X141778633Y-136368690D02*
X141702442Y-136406786D01*
X141702442Y-136406786D02*
X141664347Y-136406786D01*
X141664347Y-136406786D02*
X141588157Y-136368690D01*
X141588157Y-136368690D02*
X141550061Y-136292500D01*
X141550061Y-136292500D02*
X141550061Y-136178214D01*
X141550061Y-136178214D02*
X141588157Y-136102024D01*
X142007204Y-135263928D02*
X142045300Y-135302024D01*
X142045300Y-135302024D02*
X142083395Y-135416309D01*
X142083395Y-135416309D02*
X142083395Y-135492500D01*
X142083395Y-135492500D02*
X142045300Y-135606786D01*
X142045300Y-135606786D02*
X141969109Y-135682976D01*
X141969109Y-135682976D02*
X141892919Y-135721071D01*
X141892919Y-135721071D02*
X141740538Y-135759167D01*
X141740538Y-135759167D02*
X141626252Y-135759167D01*
X141626252Y-135759167D02*
X141473871Y-135721071D01*
X141473871Y-135721071D02*
X141397680Y-135682976D01*
X141397680Y-135682976D02*
X141321490Y-135606786D01*
X141321490Y-135606786D02*
X141283395Y-135492500D01*
X141283395Y-135492500D02*
X141283395Y-135416309D01*
X141283395Y-135416309D02*
X141321490Y-135302024D01*
X141321490Y-135302024D02*
X141359585Y-135263928D01*
X142083395Y-134806786D02*
X142045300Y-134882976D01*
X142045300Y-134882976D02*
X142007204Y-134921071D01*
X142007204Y-134921071D02*
X141931014Y-134959167D01*
X141931014Y-134959167D02*
X141702442Y-134959167D01*
X141702442Y-134959167D02*
X141626252Y-134921071D01*
X141626252Y-134921071D02*
X141588157Y-134882976D01*
X141588157Y-134882976D02*
X141550061Y-134806786D01*
X141550061Y-134806786D02*
X141550061Y-134692500D01*
X141550061Y-134692500D02*
X141588157Y-134616309D01*
X141588157Y-134616309D02*
X141626252Y-134578214D01*
X141626252Y-134578214D02*
X141702442Y-134540119D01*
X141702442Y-134540119D02*
X141931014Y-134540119D01*
X141931014Y-134540119D02*
X142007204Y-134578214D01*
X142007204Y-134578214D02*
X142045300Y-134616309D01*
X142045300Y-134616309D02*
X142083395Y-134692500D01*
X142083395Y-134692500D02*
X142083395Y-134806786D01*
X141550061Y-134197261D02*
X142083395Y-134197261D01*
X141626252Y-134197261D02*
X141588157Y-134159166D01*
X141588157Y-134159166D02*
X141550061Y-134082976D01*
X141550061Y-134082976D02*
X141550061Y-133968690D01*
X141550061Y-133968690D02*
X141588157Y-133892499D01*
X141588157Y-133892499D02*
X141664347Y-133854404D01*
X141664347Y-133854404D02*
X142083395Y-133854404D01*
X141550061Y-133473451D02*
X142083395Y-133473451D01*
X141626252Y-133473451D02*
X141588157Y-133435356D01*
X141588157Y-133435356D02*
X141550061Y-133359166D01*
X141550061Y-133359166D02*
X141550061Y-133244880D01*
X141550061Y-133244880D02*
X141588157Y-133168689D01*
X141588157Y-133168689D02*
X141664347Y-133130594D01*
X141664347Y-133130594D02*
X142083395Y-133130594D01*
X142083395Y-132330594D02*
X142083395Y-132787737D01*
X142083395Y-132559165D02*
X141283395Y-132559165D01*
X141283395Y-132559165D02*
X141397680Y-132635356D01*
X141397680Y-132635356D02*
X141473871Y-132711546D01*
X141473871Y-132711546D02*
X141511966Y-132787737D01*
D13*
X151177467Y-115746404D02*
X151139371Y-115784500D01*
X151139371Y-115784500D02*
X151025086Y-115822595D01*
X151025086Y-115822595D02*
X150948895Y-115822595D01*
X150948895Y-115822595D02*
X150834609Y-115784500D01*
X150834609Y-115784500D02*
X150758419Y-115708309D01*
X150758419Y-115708309D02*
X150720324Y-115632119D01*
X150720324Y-115632119D02*
X150682228Y-115479738D01*
X150682228Y-115479738D02*
X150682228Y-115365452D01*
X150682228Y-115365452D02*
X150720324Y-115213071D01*
X150720324Y-115213071D02*
X150758419Y-115136880D01*
X150758419Y-115136880D02*
X150834609Y-115060690D01*
X150834609Y-115060690D02*
X150948895Y-115022595D01*
X150948895Y-115022595D02*
X151025086Y-115022595D01*
X151025086Y-115022595D02*
X151139371Y-115060690D01*
X151139371Y-115060690D02*
X151177467Y-115098785D01*
X151558419Y-115822595D02*
X151710800Y-115822595D01*
X151710800Y-115822595D02*
X151786990Y-115784500D01*
X151786990Y-115784500D02*
X151825086Y-115746404D01*
X151825086Y-115746404D02*
X151901276Y-115632119D01*
X151901276Y-115632119D02*
X151939371Y-115479738D01*
X151939371Y-115479738D02*
X151939371Y-115174976D01*
X151939371Y-115174976D02*
X151901276Y-115098785D01*
X151901276Y-115098785D02*
X151863181Y-115060690D01*
X151863181Y-115060690D02*
X151786990Y-115022595D01*
X151786990Y-115022595D02*
X151634609Y-115022595D01*
X151634609Y-115022595D02*
X151558419Y-115060690D01*
X151558419Y-115060690D02*
X151520324Y-115098785D01*
X151520324Y-115098785D02*
X151482228Y-115174976D01*
X151482228Y-115174976D02*
X151482228Y-115365452D01*
X151482228Y-115365452D02*
X151520324Y-115441642D01*
X151520324Y-115441642D02*
X151558419Y-115479738D01*
X151558419Y-115479738D02*
X151634609Y-115517833D01*
X151634609Y-115517833D02*
X151786990Y-115517833D01*
X151786990Y-115517833D02*
X151863181Y-115479738D01*
X151863181Y-115479738D02*
X151901276Y-115441642D01*
X151901276Y-115441642D02*
X151939371Y-115365452D01*
D10*
X140938326Y-102314166D02*
X140333564Y-102737500D01*
X140938326Y-103039881D02*
X139668326Y-103039881D01*
X139668326Y-103039881D02*
X139668326Y-102556071D01*
X139668326Y-102556071D02*
X139728802Y-102435119D01*
X139728802Y-102435119D02*
X139789278Y-102374642D01*
X139789278Y-102374642D02*
X139910230Y-102314166D01*
X139910230Y-102314166D02*
X140091659Y-102314166D01*
X140091659Y-102314166D02*
X140212611Y-102374642D01*
X140212611Y-102374642D02*
X140273088Y-102435119D01*
X140273088Y-102435119D02*
X140333564Y-102556071D01*
X140333564Y-102556071D02*
X140333564Y-103039881D01*
X140212611Y-101588452D02*
X140152135Y-101709404D01*
X140152135Y-101709404D02*
X140091659Y-101769881D01*
X140091659Y-101769881D02*
X139970707Y-101830357D01*
X139970707Y-101830357D02*
X139910230Y-101830357D01*
X139910230Y-101830357D02*
X139789278Y-101769881D01*
X139789278Y-101769881D02*
X139728802Y-101709404D01*
X139728802Y-101709404D02*
X139668326Y-101588452D01*
X139668326Y-101588452D02*
X139668326Y-101346547D01*
X139668326Y-101346547D02*
X139728802Y-101225595D01*
X139728802Y-101225595D02*
X139789278Y-101165119D01*
X139789278Y-101165119D02*
X139910230Y-101104642D01*
X139910230Y-101104642D02*
X139970707Y-101104642D01*
X139970707Y-101104642D02*
X140091659Y-101165119D01*
X140091659Y-101165119D02*
X140152135Y-101225595D01*
X140152135Y-101225595D02*
X140212611Y-101346547D01*
X140212611Y-101346547D02*
X140212611Y-101588452D01*
X140212611Y-101588452D02*
X140273088Y-101709404D01*
X140273088Y-101709404D02*
X140333564Y-101769881D01*
X140333564Y-101769881D02*
X140454516Y-101830357D01*
X140454516Y-101830357D02*
X140696421Y-101830357D01*
X140696421Y-101830357D02*
X140817373Y-101769881D01*
X140817373Y-101769881D02*
X140877850Y-101709404D01*
X140877850Y-101709404D02*
X140938326Y-101588452D01*
X140938326Y-101588452D02*
X140938326Y-101346547D01*
X140938326Y-101346547D02*
X140877850Y-101225595D01*
X140877850Y-101225595D02*
X140817373Y-101165119D01*
X140817373Y-101165119D02*
X140696421Y-101104642D01*
X140696421Y-101104642D02*
X140454516Y-101104642D01*
X140454516Y-101104642D02*
X140333564Y-101165119D01*
X140333564Y-101165119D02*
X140273088Y-101225595D01*
X140273088Y-101225595D02*
X140212611Y-101346547D01*
X115172373Y-105048928D02*
X115232850Y-105109404D01*
X115232850Y-105109404D02*
X115293326Y-105290833D01*
X115293326Y-105290833D02*
X115293326Y-105411785D01*
X115293326Y-105411785D02*
X115232850Y-105593214D01*
X115232850Y-105593214D02*
X115111897Y-105714166D01*
X115111897Y-105714166D02*
X114990945Y-105774643D01*
X114990945Y-105774643D02*
X114749040Y-105835119D01*
X114749040Y-105835119D02*
X114567611Y-105835119D01*
X114567611Y-105835119D02*
X114325707Y-105774643D01*
X114325707Y-105774643D02*
X114204754Y-105714166D01*
X114204754Y-105714166D02*
X114083802Y-105593214D01*
X114083802Y-105593214D02*
X114023326Y-105411785D01*
X114023326Y-105411785D02*
X114023326Y-105290833D01*
X114023326Y-105290833D02*
X114083802Y-105109404D01*
X114083802Y-105109404D02*
X114144278Y-105048928D01*
X115293326Y-103839404D02*
X115293326Y-104565119D01*
X115293326Y-104202262D02*
X114023326Y-104202262D01*
X114023326Y-104202262D02*
X114204754Y-104323214D01*
X114204754Y-104323214D02*
X114325707Y-104444166D01*
X114325707Y-104444166D02*
X114386183Y-104565119D01*
X114023326Y-103053214D02*
X114023326Y-102932261D01*
X114023326Y-102932261D02*
X114083802Y-102811309D01*
X114083802Y-102811309D02*
X114144278Y-102750833D01*
X114144278Y-102750833D02*
X114265230Y-102690357D01*
X114265230Y-102690357D02*
X114507135Y-102629880D01*
X114507135Y-102629880D02*
X114809516Y-102629880D01*
X114809516Y-102629880D02*
X115051421Y-102690357D01*
X115051421Y-102690357D02*
X115172373Y-102750833D01*
X115172373Y-102750833D02*
X115232850Y-102811309D01*
X115232850Y-102811309D02*
X115293326Y-102932261D01*
X115293326Y-102932261D02*
X115293326Y-103053214D01*
X115293326Y-103053214D02*
X115232850Y-103174166D01*
X115232850Y-103174166D02*
X115172373Y-103234642D01*
X115172373Y-103234642D02*
X115051421Y-103295119D01*
X115051421Y-103295119D02*
X114809516Y-103355595D01*
X114809516Y-103355595D02*
X114507135Y-103355595D01*
X114507135Y-103355595D02*
X114265230Y-103295119D01*
X114265230Y-103295119D02*
X114144278Y-103234642D01*
X114144278Y-103234642D02*
X114083802Y-103174166D01*
X114083802Y-103174166D02*
X114023326Y-103053214D01*
X132676633Y-134345026D02*
X132253299Y-133740264D01*
X131950918Y-134345026D02*
X131950918Y-133075026D01*
X131950918Y-133075026D02*
X132434728Y-133075026D01*
X132434728Y-133075026D02*
X132555680Y-133135502D01*
X132555680Y-133135502D02*
X132616157Y-133195978D01*
X132616157Y-133195978D02*
X132676633Y-133316930D01*
X132676633Y-133316930D02*
X132676633Y-133498359D01*
X132676633Y-133498359D02*
X132616157Y-133619311D01*
X132616157Y-133619311D02*
X132555680Y-133679788D01*
X132555680Y-133679788D02*
X132434728Y-133740264D01*
X132434728Y-133740264D02*
X131950918Y-133740264D01*
X133765204Y-133075026D02*
X133523299Y-133075026D01*
X133523299Y-133075026D02*
X133402347Y-133135502D01*
X133402347Y-133135502D02*
X133341871Y-133195978D01*
X133341871Y-133195978D02*
X133220918Y-133377407D01*
X133220918Y-133377407D02*
X133160442Y-133619311D01*
X133160442Y-133619311D02*
X133160442Y-134103121D01*
X133160442Y-134103121D02*
X133220918Y-134224073D01*
X133220918Y-134224073D02*
X133281395Y-134284550D01*
X133281395Y-134284550D02*
X133402347Y-134345026D01*
X133402347Y-134345026D02*
X133644252Y-134345026D01*
X133644252Y-134345026D02*
X133765204Y-134284550D01*
X133765204Y-134284550D02*
X133825680Y-134224073D01*
X133825680Y-134224073D02*
X133886157Y-134103121D01*
X133886157Y-134103121D02*
X133886157Y-133800740D01*
X133886157Y-133800740D02*
X133825680Y-133679788D01*
X133825680Y-133679788D02*
X133765204Y-133619311D01*
X133765204Y-133619311D02*
X133644252Y-133558835D01*
X133644252Y-133558835D02*
X133402347Y-133558835D01*
X133402347Y-133558835D02*
X133281395Y-133619311D01*
X133281395Y-133619311D02*
X133220918Y-133679788D01*
X133220918Y-133679788D02*
X133160442Y-133800740D01*
D11*
X144990324Y-109972595D02*
X144990324Y-109172595D01*
X144990324Y-109172595D02*
X145180800Y-109172595D01*
X145180800Y-109172595D02*
X145295086Y-109210690D01*
X145295086Y-109210690D02*
X145371276Y-109286880D01*
X145371276Y-109286880D02*
X145409371Y-109363071D01*
X145409371Y-109363071D02*
X145447467Y-109515452D01*
X145447467Y-109515452D02*
X145447467Y-109629738D01*
X145447467Y-109629738D02*
X145409371Y-109782119D01*
X145409371Y-109782119D02*
X145371276Y-109858309D01*
X145371276Y-109858309D02*
X145295086Y-109934500D01*
X145295086Y-109934500D02*
X145180800Y-109972595D01*
X145180800Y-109972595D02*
X144990324Y-109972595D01*
X146209371Y-109972595D02*
X145752228Y-109972595D01*
X145980800Y-109972595D02*
X145980800Y-109172595D01*
X145980800Y-109172595D02*
X145904609Y-109286880D01*
X145904609Y-109286880D02*
X145828419Y-109363071D01*
X145828419Y-109363071D02*
X145752228Y-109401166D01*
X149673419Y-108194166D02*
X149197228Y-108527499D01*
X149673419Y-108765594D02*
X148673419Y-108765594D01*
X148673419Y-108765594D02*
X148673419Y-108384642D01*
X148673419Y-108384642D02*
X148721038Y-108289404D01*
X148721038Y-108289404D02*
X148768657Y-108241785D01*
X148768657Y-108241785D02*
X148863895Y-108194166D01*
X148863895Y-108194166D02*
X149006752Y-108194166D01*
X149006752Y-108194166D02*
X149101990Y-108241785D01*
X149101990Y-108241785D02*
X149149609Y-108289404D01*
X149149609Y-108289404D02*
X149197228Y-108384642D01*
X149197228Y-108384642D02*
X149197228Y-108765594D01*
X149673419Y-107717975D02*
X149673419Y-107527499D01*
X149673419Y-107527499D02*
X149625800Y-107432261D01*
X149625800Y-107432261D02*
X149578180Y-107384642D01*
X149578180Y-107384642D02*
X149435323Y-107289404D01*
X149435323Y-107289404D02*
X149244847Y-107241785D01*
X149244847Y-107241785D02*
X148863895Y-107241785D01*
X148863895Y-107241785D02*
X148768657Y-107289404D01*
X148768657Y-107289404D02*
X148721038Y-107337023D01*
X148721038Y-107337023D02*
X148673419Y-107432261D01*
X148673419Y-107432261D02*
X148673419Y-107622737D01*
X148673419Y-107622737D02*
X148721038Y-107717975D01*
X148721038Y-107717975D02*
X148768657Y-107765594D01*
X148768657Y-107765594D02*
X148863895Y-107813213D01*
X148863895Y-107813213D02*
X149101990Y-107813213D01*
X149101990Y-107813213D02*
X149197228Y-107765594D01*
X149197228Y-107765594D02*
X149244847Y-107717975D01*
X149244847Y-107717975D02*
X149292466Y-107622737D01*
X149292466Y-107622737D02*
X149292466Y-107432261D01*
X149292466Y-107432261D02*
X149244847Y-107337023D01*
X149244847Y-107337023D02*
X149197228Y-107289404D01*
X149197228Y-107289404D02*
X149101990Y-107241785D01*
D13*
X116676750Y-117902595D02*
X116295798Y-117902595D01*
X116295798Y-117902595D02*
X116295798Y-117102595D01*
X116943417Y-117902595D02*
X116943417Y-117102595D01*
X116943417Y-117102595D02*
X117210083Y-117674023D01*
X117210083Y-117674023D02*
X117476750Y-117102595D01*
X117476750Y-117102595D02*
X117476750Y-117902595D01*
X117781512Y-117102595D02*
X118276750Y-117102595D01*
X118276750Y-117102595D02*
X118010084Y-117407357D01*
X118010084Y-117407357D02*
X118124369Y-117407357D01*
X118124369Y-117407357D02*
X118200560Y-117445452D01*
X118200560Y-117445452D02*
X118238655Y-117483547D01*
X118238655Y-117483547D02*
X118276750Y-117559738D01*
X118276750Y-117559738D02*
X118276750Y-117750214D01*
X118276750Y-117750214D02*
X118238655Y-117826404D01*
X118238655Y-117826404D02*
X118200560Y-117864500D01*
X118200560Y-117864500D02*
X118124369Y-117902595D01*
X118124369Y-117902595D02*
X117895798Y-117902595D01*
X117895798Y-117902595D02*
X117819607Y-117864500D01*
X117819607Y-117864500D02*
X117781512Y-117826404D01*
X119038655Y-117902595D02*
X118581512Y-117902595D01*
X118810084Y-117902595D02*
X118810084Y-117102595D01*
X118810084Y-117102595D02*
X118733893Y-117216880D01*
X118733893Y-117216880D02*
X118657703Y-117293071D01*
X118657703Y-117293071D02*
X118581512Y-117331166D01*
X119305322Y-117102595D02*
X119838656Y-117102595D01*
X119838656Y-117102595D02*
X119495798Y-117902595D01*
X120029132Y-117102595D02*
X120295799Y-117902595D01*
X120295799Y-117902595D02*
X120562465Y-117102595D01*
X120943417Y-117902595D02*
X120867227Y-117864500D01*
X120867227Y-117864500D02*
X120829132Y-117826404D01*
X120829132Y-117826404D02*
X120791036Y-117750214D01*
X120791036Y-117750214D02*
X120791036Y-117521642D01*
X120791036Y-117521642D02*
X120829132Y-117445452D01*
X120829132Y-117445452D02*
X120867227Y-117407357D01*
X120867227Y-117407357D02*
X120943417Y-117369261D01*
X120943417Y-117369261D02*
X121057703Y-117369261D01*
X121057703Y-117369261D02*
X121133894Y-117407357D01*
X121133894Y-117407357D02*
X121171989Y-117445452D01*
X121171989Y-117445452D02*
X121210084Y-117521642D01*
X121210084Y-117521642D02*
X121210084Y-117750214D01*
X121210084Y-117750214D02*
X121171989Y-117826404D01*
X121171989Y-117826404D02*
X121133894Y-117864500D01*
X121133894Y-117864500D02*
X121057703Y-117902595D01*
X121057703Y-117902595D02*
X120943417Y-117902595D01*
X121667227Y-117902595D02*
X121591037Y-117864500D01*
X121591037Y-117864500D02*
X121552942Y-117788309D01*
X121552942Y-117788309D02*
X121552942Y-117102595D01*
X121857704Y-117369261D02*
X122162466Y-117369261D01*
X121971990Y-117102595D02*
X121971990Y-117788309D01*
X121971990Y-117788309D02*
X122010085Y-117864500D01*
X122010085Y-117864500D02*
X122086275Y-117902595D01*
X122086275Y-117902595D02*
X122162466Y-117902595D01*
X122771990Y-117902595D02*
X122771990Y-117483547D01*
X122771990Y-117483547D02*
X122733895Y-117407357D01*
X122733895Y-117407357D02*
X122657704Y-117369261D01*
X122657704Y-117369261D02*
X122505323Y-117369261D01*
X122505323Y-117369261D02*
X122429133Y-117407357D01*
X122771990Y-117864500D02*
X122695799Y-117902595D01*
X122695799Y-117902595D02*
X122505323Y-117902595D01*
X122505323Y-117902595D02*
X122429133Y-117864500D01*
X122429133Y-117864500D02*
X122391037Y-117788309D01*
X122391037Y-117788309D02*
X122391037Y-117712119D01*
X122391037Y-117712119D02*
X122429133Y-117635928D01*
X122429133Y-117635928D02*
X122505323Y-117597833D01*
X122505323Y-117597833D02*
X122695799Y-117597833D01*
X122695799Y-117597833D02*
X122771990Y-117559738D01*
X123495800Y-117369261D02*
X123495800Y-118016880D01*
X123495800Y-118016880D02*
X123457705Y-118093071D01*
X123457705Y-118093071D02*
X123419609Y-118131166D01*
X123419609Y-118131166D02*
X123343419Y-118169261D01*
X123343419Y-118169261D02*
X123229133Y-118169261D01*
X123229133Y-118169261D02*
X123152943Y-118131166D01*
X123495800Y-117864500D02*
X123419609Y-117902595D01*
X123419609Y-117902595D02*
X123267228Y-117902595D01*
X123267228Y-117902595D02*
X123191038Y-117864500D01*
X123191038Y-117864500D02*
X123152943Y-117826404D01*
X123152943Y-117826404D02*
X123114847Y-117750214D01*
X123114847Y-117750214D02*
X123114847Y-117521642D01*
X123114847Y-117521642D02*
X123152943Y-117445452D01*
X123152943Y-117445452D02*
X123191038Y-117407357D01*
X123191038Y-117407357D02*
X123267228Y-117369261D01*
X123267228Y-117369261D02*
X123419609Y-117369261D01*
X123419609Y-117369261D02*
X123495800Y-117407357D01*
X124181515Y-117864500D02*
X124105324Y-117902595D01*
X124105324Y-117902595D02*
X123952943Y-117902595D01*
X123952943Y-117902595D02*
X123876753Y-117864500D01*
X123876753Y-117864500D02*
X123838657Y-117788309D01*
X123838657Y-117788309D02*
X123838657Y-117483547D01*
X123838657Y-117483547D02*
X123876753Y-117407357D01*
X123876753Y-117407357D02*
X123952943Y-117369261D01*
X123952943Y-117369261D02*
X124105324Y-117369261D01*
X124105324Y-117369261D02*
X124181515Y-117407357D01*
X124181515Y-117407357D02*
X124219610Y-117483547D01*
X124219610Y-117483547D02*
X124219610Y-117559738D01*
X124219610Y-117559738D02*
X123838657Y-117635928D01*
X125019610Y-117902595D02*
X124752943Y-117521642D01*
X124562467Y-117902595D02*
X124562467Y-117102595D01*
X124562467Y-117102595D02*
X124867229Y-117102595D01*
X124867229Y-117102595D02*
X124943419Y-117140690D01*
X124943419Y-117140690D02*
X124981514Y-117178785D01*
X124981514Y-117178785D02*
X125019610Y-117254976D01*
X125019610Y-117254976D02*
X125019610Y-117369261D01*
X125019610Y-117369261D02*
X124981514Y-117445452D01*
X124981514Y-117445452D02*
X124943419Y-117483547D01*
X124943419Y-117483547D02*
X124867229Y-117521642D01*
X124867229Y-117521642D02*
X124562467Y-117521642D01*
X125667229Y-117864500D02*
X125591038Y-117902595D01*
X125591038Y-117902595D02*
X125438657Y-117902595D01*
X125438657Y-117902595D02*
X125362467Y-117864500D01*
X125362467Y-117864500D02*
X125324371Y-117788309D01*
X125324371Y-117788309D02*
X125324371Y-117483547D01*
X125324371Y-117483547D02*
X125362467Y-117407357D01*
X125362467Y-117407357D02*
X125438657Y-117369261D01*
X125438657Y-117369261D02*
X125591038Y-117369261D01*
X125591038Y-117369261D02*
X125667229Y-117407357D01*
X125667229Y-117407357D02*
X125705324Y-117483547D01*
X125705324Y-117483547D02*
X125705324Y-117559738D01*
X125705324Y-117559738D02*
X125324371Y-117635928D01*
X126391038Y-117369261D02*
X126391038Y-118016880D01*
X126391038Y-118016880D02*
X126352943Y-118093071D01*
X126352943Y-118093071D02*
X126314847Y-118131166D01*
X126314847Y-118131166D02*
X126238657Y-118169261D01*
X126238657Y-118169261D02*
X126124371Y-118169261D01*
X126124371Y-118169261D02*
X126048181Y-118131166D01*
X126391038Y-117864500D02*
X126314847Y-117902595D01*
X126314847Y-117902595D02*
X126162466Y-117902595D01*
X126162466Y-117902595D02*
X126086276Y-117864500D01*
X126086276Y-117864500D02*
X126048181Y-117826404D01*
X126048181Y-117826404D02*
X126010085Y-117750214D01*
X126010085Y-117750214D02*
X126010085Y-117521642D01*
X126010085Y-117521642D02*
X126048181Y-117445452D01*
X126048181Y-117445452D02*
X126086276Y-117407357D01*
X126086276Y-117407357D02*
X126162466Y-117369261D01*
X126162466Y-117369261D02*
X126314847Y-117369261D01*
X126314847Y-117369261D02*
X126391038Y-117407357D01*
X127114848Y-117369261D02*
X127114848Y-117902595D01*
X126771991Y-117369261D02*
X126771991Y-117788309D01*
X126771991Y-117788309D02*
X126810086Y-117864500D01*
X126810086Y-117864500D02*
X126886276Y-117902595D01*
X126886276Y-117902595D02*
X127000562Y-117902595D01*
X127000562Y-117902595D02*
X127076753Y-117864500D01*
X127076753Y-117864500D02*
X127114848Y-117826404D01*
X127610086Y-117902595D02*
X127533896Y-117864500D01*
X127533896Y-117864500D02*
X127495801Y-117788309D01*
X127495801Y-117788309D02*
X127495801Y-117102595D01*
X128257706Y-117902595D02*
X128257706Y-117483547D01*
X128257706Y-117483547D02*
X128219611Y-117407357D01*
X128219611Y-117407357D02*
X128143420Y-117369261D01*
X128143420Y-117369261D02*
X127991039Y-117369261D01*
X127991039Y-117369261D02*
X127914849Y-117407357D01*
X128257706Y-117864500D02*
X128181515Y-117902595D01*
X128181515Y-117902595D02*
X127991039Y-117902595D01*
X127991039Y-117902595D02*
X127914849Y-117864500D01*
X127914849Y-117864500D02*
X127876753Y-117788309D01*
X127876753Y-117788309D02*
X127876753Y-117712119D01*
X127876753Y-117712119D02*
X127914849Y-117635928D01*
X127914849Y-117635928D02*
X127991039Y-117597833D01*
X127991039Y-117597833D02*
X128181515Y-117597833D01*
X128181515Y-117597833D02*
X128257706Y-117559738D01*
X128524373Y-117369261D02*
X128829135Y-117369261D01*
X128638659Y-117102595D02*
X128638659Y-117788309D01*
X128638659Y-117788309D02*
X128676754Y-117864500D01*
X128676754Y-117864500D02*
X128752944Y-117902595D01*
X128752944Y-117902595D02*
X128829135Y-117902595D01*
X129210087Y-117902595D02*
X129133897Y-117864500D01*
X129133897Y-117864500D02*
X129095802Y-117826404D01*
X129095802Y-117826404D02*
X129057706Y-117750214D01*
X129057706Y-117750214D02*
X129057706Y-117521642D01*
X129057706Y-117521642D02*
X129095802Y-117445452D01*
X129095802Y-117445452D02*
X129133897Y-117407357D01*
X129133897Y-117407357D02*
X129210087Y-117369261D01*
X129210087Y-117369261D02*
X129324373Y-117369261D01*
X129324373Y-117369261D02*
X129400564Y-117407357D01*
X129400564Y-117407357D02*
X129438659Y-117445452D01*
X129438659Y-117445452D02*
X129476754Y-117521642D01*
X129476754Y-117521642D02*
X129476754Y-117750214D01*
X129476754Y-117750214D02*
X129438659Y-117826404D01*
X129438659Y-117826404D02*
X129400564Y-117864500D01*
X129400564Y-117864500D02*
X129324373Y-117902595D01*
X129324373Y-117902595D02*
X129210087Y-117902595D01*
X129819612Y-117902595D02*
X129819612Y-117369261D01*
X129819612Y-117521642D02*
X129857707Y-117445452D01*
X129857707Y-117445452D02*
X129895802Y-117407357D01*
X129895802Y-117407357D02*
X129971993Y-117369261D01*
X129971993Y-117369261D02*
X130048183Y-117369261D01*
X130733897Y-117902595D02*
X130276754Y-117902595D01*
X130505326Y-117902595D02*
X130505326Y-117102595D01*
X130505326Y-117102595D02*
X130429135Y-117216880D01*
X130429135Y-117216880D02*
X130352945Y-117293071D01*
X130352945Y-117293071D02*
X130276754Y-117331166D01*
X187015714Y-82433904D02*
X186977618Y-82472000D01*
X186977618Y-82472000D02*
X186863333Y-82510095D01*
X186863333Y-82510095D02*
X186787142Y-82510095D01*
X186787142Y-82510095D02*
X186672856Y-82472000D01*
X186672856Y-82472000D02*
X186596666Y-82395809D01*
X186596666Y-82395809D02*
X186558571Y-82319619D01*
X186558571Y-82319619D02*
X186520475Y-82167238D01*
X186520475Y-82167238D02*
X186520475Y-82052952D01*
X186520475Y-82052952D02*
X186558571Y-81900571D01*
X186558571Y-81900571D02*
X186596666Y-81824380D01*
X186596666Y-81824380D02*
X186672856Y-81748190D01*
X186672856Y-81748190D02*
X186787142Y-81710095D01*
X186787142Y-81710095D02*
X186863333Y-81710095D01*
X186863333Y-81710095D02*
X186977618Y-81748190D01*
X186977618Y-81748190D02*
X187015714Y-81786285D01*
X187777618Y-82510095D02*
X187320475Y-82510095D01*
X187549047Y-82510095D02*
X187549047Y-81710095D01*
X187549047Y-81710095D02*
X187472856Y-81824380D01*
X187472856Y-81824380D02*
X187396666Y-81900571D01*
X187396666Y-81900571D02*
X187320475Y-81938666D01*
X188044285Y-81710095D02*
X188539523Y-81710095D01*
X188539523Y-81710095D02*
X188272857Y-82014857D01*
X188272857Y-82014857D02*
X188387142Y-82014857D01*
X188387142Y-82014857D02*
X188463333Y-82052952D01*
X188463333Y-82052952D02*
X188501428Y-82091047D01*
X188501428Y-82091047D02*
X188539523Y-82167238D01*
X188539523Y-82167238D02*
X188539523Y-82357714D01*
X188539523Y-82357714D02*
X188501428Y-82433904D01*
X188501428Y-82433904D02*
X188463333Y-82472000D01*
X188463333Y-82472000D02*
X188387142Y-82510095D01*
X188387142Y-82510095D02*
X188158571Y-82510095D01*
X188158571Y-82510095D02*
X188082380Y-82472000D01*
X188082380Y-82472000D02*
X188044285Y-82433904D01*
D10*
X197318326Y-119076428D02*
X196713564Y-119499762D01*
X197318326Y-119802143D02*
X196048326Y-119802143D01*
X196048326Y-119802143D02*
X196048326Y-119318333D01*
X196048326Y-119318333D02*
X196108802Y-119197381D01*
X196108802Y-119197381D02*
X196169278Y-119136904D01*
X196169278Y-119136904D02*
X196290230Y-119076428D01*
X196290230Y-119076428D02*
X196471659Y-119076428D01*
X196471659Y-119076428D02*
X196592611Y-119136904D01*
X196592611Y-119136904D02*
X196653088Y-119197381D01*
X196653088Y-119197381D02*
X196713564Y-119318333D01*
X196713564Y-119318333D02*
X196713564Y-119802143D01*
X197318326Y-117866904D02*
X197318326Y-118592619D01*
X197318326Y-118229762D02*
X196048326Y-118229762D01*
X196048326Y-118229762D02*
X196229754Y-118350714D01*
X196229754Y-118350714D02*
X196350707Y-118471666D01*
X196350707Y-118471666D02*
X196411183Y-118592619D01*
X196048326Y-117443571D02*
X196048326Y-116657380D01*
X196048326Y-116657380D02*
X196532135Y-117080714D01*
X196532135Y-117080714D02*
X196532135Y-116899285D01*
X196532135Y-116899285D02*
X196592611Y-116778333D01*
X196592611Y-116778333D02*
X196653088Y-116717857D01*
X196653088Y-116717857D02*
X196774040Y-116657380D01*
X196774040Y-116657380D02*
X197076421Y-116657380D01*
X197076421Y-116657380D02*
X197197373Y-116717857D01*
X197197373Y-116717857D02*
X197257850Y-116778333D01*
X197257850Y-116778333D02*
X197318326Y-116899285D01*
X197318326Y-116899285D02*
X197318326Y-117262142D01*
X197318326Y-117262142D02*
X197257850Y-117383095D01*
X197257850Y-117383095D02*
X197197373Y-117443571D01*
D11*
X185691219Y-100251257D02*
X185215028Y-100584590D01*
X185691219Y-100822685D02*
X184691219Y-100822685D01*
X184691219Y-100822685D02*
X184691219Y-100441733D01*
X184691219Y-100441733D02*
X184738838Y-100346495D01*
X184738838Y-100346495D02*
X184786457Y-100298876D01*
X184786457Y-100298876D02*
X184881695Y-100251257D01*
X184881695Y-100251257D02*
X185024552Y-100251257D01*
X185024552Y-100251257D02*
X185119790Y-100298876D01*
X185119790Y-100298876D02*
X185167409Y-100346495D01*
X185167409Y-100346495D02*
X185215028Y-100441733D01*
X185215028Y-100441733D02*
X185215028Y-100822685D01*
X185691219Y-99298876D02*
X185691219Y-99870304D01*
X185691219Y-99584590D02*
X184691219Y-99584590D01*
X184691219Y-99584590D02*
X184834076Y-99679828D01*
X184834076Y-99679828D02*
X184929314Y-99775066D01*
X184929314Y-99775066D02*
X184976933Y-99870304D01*
X184691219Y-98965542D02*
X184691219Y-98298876D01*
X184691219Y-98298876D02*
X185691219Y-98727447D01*
X160205300Y-138629883D02*
X160243395Y-138515597D01*
X160243395Y-138515597D02*
X160243395Y-138325121D01*
X160243395Y-138325121D02*
X160205300Y-138248930D01*
X160205300Y-138248930D02*
X160167204Y-138210835D01*
X160167204Y-138210835D02*
X160091014Y-138172740D01*
X160091014Y-138172740D02*
X160014823Y-138172740D01*
X160014823Y-138172740D02*
X159938633Y-138210835D01*
X159938633Y-138210835D02*
X159900538Y-138248930D01*
X159900538Y-138248930D02*
X159862442Y-138325121D01*
X159862442Y-138325121D02*
X159824347Y-138477502D01*
X159824347Y-138477502D02*
X159786252Y-138553692D01*
X159786252Y-138553692D02*
X159748157Y-138591787D01*
X159748157Y-138591787D02*
X159671966Y-138629883D01*
X159671966Y-138629883D02*
X159595776Y-138629883D01*
X159595776Y-138629883D02*
X159519585Y-138591787D01*
X159519585Y-138591787D02*
X159481490Y-138553692D01*
X159481490Y-138553692D02*
X159443395Y-138477502D01*
X159443395Y-138477502D02*
X159443395Y-138287025D01*
X159443395Y-138287025D02*
X159481490Y-138172740D01*
X160243395Y-137715597D02*
X160205300Y-137791787D01*
X160205300Y-137791787D02*
X160167204Y-137829882D01*
X160167204Y-137829882D02*
X160091014Y-137867978D01*
X160091014Y-137867978D02*
X159862442Y-137867978D01*
X159862442Y-137867978D02*
X159786252Y-137829882D01*
X159786252Y-137829882D02*
X159748157Y-137791787D01*
X159748157Y-137791787D02*
X159710061Y-137715597D01*
X159710061Y-137715597D02*
X159710061Y-137601311D01*
X159710061Y-137601311D02*
X159748157Y-137525120D01*
X159748157Y-137525120D02*
X159786252Y-137487025D01*
X159786252Y-137487025D02*
X159862442Y-137448930D01*
X159862442Y-137448930D02*
X160091014Y-137448930D01*
X160091014Y-137448930D02*
X160167204Y-137487025D01*
X160167204Y-137487025D02*
X160205300Y-137525120D01*
X160205300Y-137525120D02*
X160243395Y-137601311D01*
X160243395Y-137601311D02*
X160243395Y-137715597D01*
X160243395Y-136991787D02*
X160205300Y-137067977D01*
X160205300Y-137067977D02*
X160129109Y-137106072D01*
X160129109Y-137106072D02*
X159443395Y-137106072D01*
X160243395Y-136344167D02*
X159824347Y-136344167D01*
X159824347Y-136344167D02*
X159748157Y-136382262D01*
X159748157Y-136382262D02*
X159710061Y-136458453D01*
X159710061Y-136458453D02*
X159710061Y-136610834D01*
X159710061Y-136610834D02*
X159748157Y-136687024D01*
X160205300Y-136344167D02*
X160243395Y-136420358D01*
X160243395Y-136420358D02*
X160243395Y-136610834D01*
X160243395Y-136610834D02*
X160205300Y-136687024D01*
X160205300Y-136687024D02*
X160129109Y-136725120D01*
X160129109Y-136725120D02*
X160052919Y-136725120D01*
X160052919Y-136725120D02*
X159976728Y-136687024D01*
X159976728Y-136687024D02*
X159938633Y-136610834D01*
X159938633Y-136610834D02*
X159938633Y-136420358D01*
X159938633Y-136420358D02*
X159900538Y-136344167D01*
X160243395Y-135963214D02*
X159710061Y-135963214D01*
X159862442Y-135963214D02*
X159786252Y-135925119D01*
X159786252Y-135925119D02*
X159748157Y-135887024D01*
X159748157Y-135887024D02*
X159710061Y-135810833D01*
X159710061Y-135810833D02*
X159710061Y-135734643D01*
X160243395Y-135467976D02*
X159443395Y-135467976D01*
X159443395Y-135467976D02*
X159443395Y-135163214D01*
X159443395Y-135163214D02*
X159481490Y-135087024D01*
X159481490Y-135087024D02*
X159519585Y-135048929D01*
X159519585Y-135048929D02*
X159595776Y-135010833D01*
X159595776Y-135010833D02*
X159710061Y-135010833D01*
X159710061Y-135010833D02*
X159786252Y-135048929D01*
X159786252Y-135048929D02*
X159824347Y-135087024D01*
X159824347Y-135087024D02*
X159862442Y-135163214D01*
X159862442Y-135163214D02*
X159862442Y-135467976D01*
X160243395Y-134325119D02*
X159824347Y-134325119D01*
X159824347Y-134325119D02*
X159748157Y-134363214D01*
X159748157Y-134363214D02*
X159710061Y-134439405D01*
X159710061Y-134439405D02*
X159710061Y-134591786D01*
X159710061Y-134591786D02*
X159748157Y-134667976D01*
X160205300Y-134325119D02*
X160243395Y-134401310D01*
X160243395Y-134401310D02*
X160243395Y-134591786D01*
X160243395Y-134591786D02*
X160205300Y-134667976D01*
X160205300Y-134667976D02*
X160129109Y-134706072D01*
X160129109Y-134706072D02*
X160052919Y-134706072D01*
X160052919Y-134706072D02*
X159976728Y-134667976D01*
X159976728Y-134667976D02*
X159938633Y-134591786D01*
X159938633Y-134591786D02*
X159938633Y-134401310D01*
X159938633Y-134401310D02*
X159900538Y-134325119D01*
X159710061Y-133944166D02*
X160243395Y-133944166D01*
X159786252Y-133944166D02*
X159748157Y-133906071D01*
X159748157Y-133906071D02*
X159710061Y-133829881D01*
X159710061Y-133829881D02*
X159710061Y-133715595D01*
X159710061Y-133715595D02*
X159748157Y-133639404D01*
X159748157Y-133639404D02*
X159824347Y-133601309D01*
X159824347Y-133601309D02*
X160243395Y-133601309D01*
X160205300Y-132915594D02*
X160243395Y-132991785D01*
X160243395Y-132991785D02*
X160243395Y-133144166D01*
X160243395Y-133144166D02*
X160205300Y-133220356D01*
X160205300Y-133220356D02*
X160129109Y-133258452D01*
X160129109Y-133258452D02*
X159824347Y-133258452D01*
X159824347Y-133258452D02*
X159748157Y-133220356D01*
X159748157Y-133220356D02*
X159710061Y-133144166D01*
X159710061Y-133144166D02*
X159710061Y-132991785D01*
X159710061Y-132991785D02*
X159748157Y-132915594D01*
X159748157Y-132915594D02*
X159824347Y-132877499D01*
X159824347Y-132877499D02*
X159900538Y-132877499D01*
X159900538Y-132877499D02*
X159976728Y-133258452D01*
X160243395Y-132420357D02*
X160205300Y-132496547D01*
X160205300Y-132496547D02*
X160129109Y-132534642D01*
X160129109Y-132534642D02*
X159443395Y-132534642D01*
X160167204Y-131658451D02*
X160205300Y-131696547D01*
X160205300Y-131696547D02*
X160243395Y-131810832D01*
X160243395Y-131810832D02*
X160243395Y-131887023D01*
X160243395Y-131887023D02*
X160205300Y-132001309D01*
X160205300Y-132001309D02*
X160129109Y-132077499D01*
X160129109Y-132077499D02*
X160052919Y-132115594D01*
X160052919Y-132115594D02*
X159900538Y-132153690D01*
X159900538Y-132153690D02*
X159786252Y-132153690D01*
X159786252Y-132153690D02*
X159633871Y-132115594D01*
X159633871Y-132115594D02*
X159557680Y-132077499D01*
X159557680Y-132077499D02*
X159481490Y-132001309D01*
X159481490Y-132001309D02*
X159443395Y-131887023D01*
X159443395Y-131887023D02*
X159443395Y-131810832D01*
X159443395Y-131810832D02*
X159481490Y-131696547D01*
X159481490Y-131696547D02*
X159519585Y-131658451D01*
X160243395Y-131201309D02*
X160205300Y-131277499D01*
X160205300Y-131277499D02*
X160167204Y-131315594D01*
X160167204Y-131315594D02*
X160091014Y-131353690D01*
X160091014Y-131353690D02*
X159862442Y-131353690D01*
X159862442Y-131353690D02*
X159786252Y-131315594D01*
X159786252Y-131315594D02*
X159748157Y-131277499D01*
X159748157Y-131277499D02*
X159710061Y-131201309D01*
X159710061Y-131201309D02*
X159710061Y-131087023D01*
X159710061Y-131087023D02*
X159748157Y-131010832D01*
X159748157Y-131010832D02*
X159786252Y-130972737D01*
X159786252Y-130972737D02*
X159862442Y-130934642D01*
X159862442Y-130934642D02*
X160091014Y-130934642D01*
X160091014Y-130934642D02*
X160167204Y-130972737D01*
X160167204Y-130972737D02*
X160205300Y-131010832D01*
X160205300Y-131010832D02*
X160243395Y-131087023D01*
X160243395Y-131087023D02*
X160243395Y-131201309D01*
X159710061Y-130591784D02*
X160243395Y-130591784D01*
X159786252Y-130591784D02*
X159748157Y-130553689D01*
X159748157Y-130553689D02*
X159710061Y-130477499D01*
X159710061Y-130477499D02*
X159710061Y-130363213D01*
X159710061Y-130363213D02*
X159748157Y-130287022D01*
X159748157Y-130287022D02*
X159824347Y-130248927D01*
X159824347Y-130248927D02*
X160243395Y-130248927D01*
X159710061Y-129867974D02*
X160243395Y-129867974D01*
X159786252Y-129867974D02*
X159748157Y-129829879D01*
X159748157Y-129829879D02*
X159710061Y-129753689D01*
X159710061Y-129753689D02*
X159710061Y-129639403D01*
X159710061Y-129639403D02*
X159748157Y-129563212D01*
X159748157Y-129563212D02*
X159824347Y-129525117D01*
X159824347Y-129525117D02*
X160243395Y-129525117D01*
X160243395Y-128725117D02*
X160243395Y-129182260D01*
X160243395Y-128953688D02*
X159443395Y-128953688D01*
X159443395Y-128953688D02*
X159557680Y-129029879D01*
X159557680Y-129029879D02*
X159633871Y-129106069D01*
X159633871Y-129106069D02*
X159671966Y-129182260D01*
X151233395Y-138210357D02*
X151233395Y-138591309D01*
X151233395Y-138591309D02*
X150433395Y-138591309D01*
X151233395Y-137943690D02*
X150433395Y-137943690D01*
X150433395Y-137943690D02*
X150433395Y-137753214D01*
X150433395Y-137753214D02*
X150471490Y-137638928D01*
X150471490Y-137638928D02*
X150547680Y-137562738D01*
X150547680Y-137562738D02*
X150623871Y-137524643D01*
X150623871Y-137524643D02*
X150776252Y-137486547D01*
X150776252Y-137486547D02*
X150890538Y-137486547D01*
X150890538Y-137486547D02*
X151042919Y-137524643D01*
X151042919Y-137524643D02*
X151119109Y-137562738D01*
X151119109Y-137562738D02*
X151195300Y-137638928D01*
X151195300Y-137638928D02*
X151233395Y-137753214D01*
X151233395Y-137753214D02*
X151233395Y-137943690D01*
X151233395Y-136686547D02*
X150852442Y-136953214D01*
X151233395Y-137143690D02*
X150433395Y-137143690D01*
X150433395Y-137143690D02*
X150433395Y-136838928D01*
X150433395Y-136838928D02*
X150471490Y-136762738D01*
X150471490Y-136762738D02*
X150509585Y-136724643D01*
X150509585Y-136724643D02*
X150585776Y-136686547D01*
X150585776Y-136686547D02*
X150700061Y-136686547D01*
X150700061Y-136686547D02*
X150776252Y-136724643D01*
X150776252Y-136724643D02*
X150814347Y-136762738D01*
X150814347Y-136762738D02*
X150852442Y-136838928D01*
X150852442Y-136838928D02*
X150852442Y-137143690D01*
X151195300Y-136381786D02*
X151233395Y-136305595D01*
X151233395Y-136305595D02*
X151233395Y-136153214D01*
X151233395Y-136153214D02*
X151195300Y-136077024D01*
X151195300Y-136077024D02*
X151119109Y-136038928D01*
X151119109Y-136038928D02*
X151081014Y-136038928D01*
X151081014Y-136038928D02*
X151004823Y-136077024D01*
X151004823Y-136077024D02*
X150966728Y-136153214D01*
X150966728Y-136153214D02*
X150966728Y-136267500D01*
X150966728Y-136267500D02*
X150928633Y-136343690D01*
X150928633Y-136343690D02*
X150852442Y-136381786D01*
X150852442Y-136381786D02*
X150814347Y-136381786D01*
X150814347Y-136381786D02*
X150738157Y-136343690D01*
X150738157Y-136343690D02*
X150700061Y-136267500D01*
X150700061Y-136267500D02*
X150700061Y-136153214D01*
X150700061Y-136153214D02*
X150738157Y-136077024D01*
X151157204Y-135238928D02*
X151195300Y-135277024D01*
X151195300Y-135277024D02*
X151233395Y-135391309D01*
X151233395Y-135391309D02*
X151233395Y-135467500D01*
X151233395Y-135467500D02*
X151195300Y-135581786D01*
X151195300Y-135581786D02*
X151119109Y-135657976D01*
X151119109Y-135657976D02*
X151042919Y-135696071D01*
X151042919Y-135696071D02*
X150890538Y-135734167D01*
X150890538Y-135734167D02*
X150776252Y-135734167D01*
X150776252Y-135734167D02*
X150623871Y-135696071D01*
X150623871Y-135696071D02*
X150547680Y-135657976D01*
X150547680Y-135657976D02*
X150471490Y-135581786D01*
X150471490Y-135581786D02*
X150433395Y-135467500D01*
X150433395Y-135467500D02*
X150433395Y-135391309D01*
X150433395Y-135391309D02*
X150471490Y-135277024D01*
X150471490Y-135277024D02*
X150509585Y-135238928D01*
X151233395Y-134781786D02*
X151195300Y-134857976D01*
X151195300Y-134857976D02*
X151157204Y-134896071D01*
X151157204Y-134896071D02*
X151081014Y-134934167D01*
X151081014Y-134934167D02*
X150852442Y-134934167D01*
X150852442Y-134934167D02*
X150776252Y-134896071D01*
X150776252Y-134896071D02*
X150738157Y-134857976D01*
X150738157Y-134857976D02*
X150700061Y-134781786D01*
X150700061Y-134781786D02*
X150700061Y-134667500D01*
X150700061Y-134667500D02*
X150738157Y-134591309D01*
X150738157Y-134591309D02*
X150776252Y-134553214D01*
X150776252Y-134553214D02*
X150852442Y-134515119D01*
X150852442Y-134515119D02*
X151081014Y-134515119D01*
X151081014Y-134515119D02*
X151157204Y-134553214D01*
X151157204Y-134553214D02*
X151195300Y-134591309D01*
X151195300Y-134591309D02*
X151233395Y-134667500D01*
X151233395Y-134667500D02*
X151233395Y-134781786D01*
X150700061Y-134172261D02*
X151233395Y-134172261D01*
X150776252Y-134172261D02*
X150738157Y-134134166D01*
X150738157Y-134134166D02*
X150700061Y-134057976D01*
X150700061Y-134057976D02*
X150700061Y-133943690D01*
X150700061Y-133943690D02*
X150738157Y-133867499D01*
X150738157Y-133867499D02*
X150814347Y-133829404D01*
X150814347Y-133829404D02*
X151233395Y-133829404D01*
X150700061Y-133448451D02*
X151233395Y-133448451D01*
X150776252Y-133448451D02*
X150738157Y-133410356D01*
X150738157Y-133410356D02*
X150700061Y-133334166D01*
X150700061Y-133334166D02*
X150700061Y-133219880D01*
X150700061Y-133219880D02*
X150738157Y-133143689D01*
X150738157Y-133143689D02*
X150814347Y-133105594D01*
X150814347Y-133105594D02*
X151233395Y-133105594D01*
X150509585Y-132762737D02*
X150471490Y-132724641D01*
X150471490Y-132724641D02*
X150433395Y-132648451D01*
X150433395Y-132648451D02*
X150433395Y-132457975D01*
X150433395Y-132457975D02*
X150471490Y-132381784D01*
X150471490Y-132381784D02*
X150509585Y-132343689D01*
X150509585Y-132343689D02*
X150585776Y-132305594D01*
X150585776Y-132305594D02*
X150661966Y-132305594D01*
X150661966Y-132305594D02*
X150776252Y-132343689D01*
X150776252Y-132343689D02*
X151233395Y-132800832D01*
X151233395Y-132800832D02*
X151233395Y-132305594D01*
D14*
X163150800Y-110683142D02*
X163107943Y-110726000D01*
X163107943Y-110726000D02*
X162979371Y-110768857D01*
X162979371Y-110768857D02*
X162893657Y-110768857D01*
X162893657Y-110768857D02*
X162765086Y-110726000D01*
X162765086Y-110726000D02*
X162679371Y-110640285D01*
X162679371Y-110640285D02*
X162636514Y-110554571D01*
X162636514Y-110554571D02*
X162593657Y-110383142D01*
X162593657Y-110383142D02*
X162593657Y-110254571D01*
X162593657Y-110254571D02*
X162636514Y-110083142D01*
X162636514Y-110083142D02*
X162679371Y-109997428D01*
X162679371Y-109997428D02*
X162765086Y-109911714D01*
X162765086Y-109911714D02*
X162893657Y-109868857D01*
X162893657Y-109868857D02*
X162979371Y-109868857D01*
X162979371Y-109868857D02*
X163107943Y-109911714D01*
X163107943Y-109911714D02*
X163150800Y-109954571D01*
X163665086Y-110254571D02*
X163579371Y-110211714D01*
X163579371Y-110211714D02*
X163536514Y-110168857D01*
X163536514Y-110168857D02*
X163493657Y-110083142D01*
X163493657Y-110083142D02*
X163493657Y-110040285D01*
X163493657Y-110040285D02*
X163536514Y-109954571D01*
X163536514Y-109954571D02*
X163579371Y-109911714D01*
X163579371Y-109911714D02*
X163665086Y-109868857D01*
X163665086Y-109868857D02*
X163836514Y-109868857D01*
X163836514Y-109868857D02*
X163922229Y-109911714D01*
X163922229Y-109911714D02*
X163965086Y-109954571D01*
X163965086Y-109954571D02*
X164007943Y-110040285D01*
X164007943Y-110040285D02*
X164007943Y-110083142D01*
X164007943Y-110083142D02*
X163965086Y-110168857D01*
X163965086Y-110168857D02*
X163922229Y-110211714D01*
X163922229Y-110211714D02*
X163836514Y-110254571D01*
X163836514Y-110254571D02*
X163665086Y-110254571D01*
X163665086Y-110254571D02*
X163579371Y-110297428D01*
X163579371Y-110297428D02*
X163536514Y-110340285D01*
X163536514Y-110340285D02*
X163493657Y-110426000D01*
X163493657Y-110426000D02*
X163493657Y-110597428D01*
X163493657Y-110597428D02*
X163536514Y-110683142D01*
X163536514Y-110683142D02*
X163579371Y-110726000D01*
X163579371Y-110726000D02*
X163665086Y-110768857D01*
X163665086Y-110768857D02*
X163836514Y-110768857D01*
X163836514Y-110768857D02*
X163922229Y-110726000D01*
X163922229Y-110726000D02*
X163965086Y-110683142D01*
X163965086Y-110683142D02*
X164007943Y-110597428D01*
X164007943Y-110597428D02*
X164007943Y-110426000D01*
X164007943Y-110426000D02*
X163965086Y-110340285D01*
X163965086Y-110340285D02*
X163922229Y-110297428D01*
X163922229Y-110297428D02*
X163836514Y-110254571D01*
D11*
X169085300Y-138614882D02*
X169123395Y-138500596D01*
X169123395Y-138500596D02*
X169123395Y-138310120D01*
X169123395Y-138310120D02*
X169085300Y-138233929D01*
X169085300Y-138233929D02*
X169047204Y-138195834D01*
X169047204Y-138195834D02*
X168971014Y-138157739D01*
X168971014Y-138157739D02*
X168894823Y-138157739D01*
X168894823Y-138157739D02*
X168818633Y-138195834D01*
X168818633Y-138195834D02*
X168780538Y-138233929D01*
X168780538Y-138233929D02*
X168742442Y-138310120D01*
X168742442Y-138310120D02*
X168704347Y-138462501D01*
X168704347Y-138462501D02*
X168666252Y-138538691D01*
X168666252Y-138538691D02*
X168628157Y-138576786D01*
X168628157Y-138576786D02*
X168551966Y-138614882D01*
X168551966Y-138614882D02*
X168475776Y-138614882D01*
X168475776Y-138614882D02*
X168399585Y-138576786D01*
X168399585Y-138576786D02*
X168361490Y-138538691D01*
X168361490Y-138538691D02*
X168323395Y-138462501D01*
X168323395Y-138462501D02*
X168323395Y-138272024D01*
X168323395Y-138272024D02*
X168361490Y-138157739D01*
X169085300Y-137510119D02*
X169123395Y-137586310D01*
X169123395Y-137586310D02*
X169123395Y-137738691D01*
X169123395Y-137738691D02*
X169085300Y-137814881D01*
X169085300Y-137814881D02*
X169009109Y-137852977D01*
X169009109Y-137852977D02*
X168704347Y-137852977D01*
X168704347Y-137852977D02*
X168628157Y-137814881D01*
X168628157Y-137814881D02*
X168590061Y-137738691D01*
X168590061Y-137738691D02*
X168590061Y-137586310D01*
X168590061Y-137586310D02*
X168628157Y-137510119D01*
X168628157Y-137510119D02*
X168704347Y-137472024D01*
X168704347Y-137472024D02*
X168780538Y-137472024D01*
X168780538Y-137472024D02*
X168856728Y-137852977D01*
X169123395Y-137129167D02*
X168590061Y-137129167D01*
X168742442Y-137129167D02*
X168666252Y-137091072D01*
X168666252Y-137091072D02*
X168628157Y-137052977D01*
X168628157Y-137052977D02*
X168590061Y-136976786D01*
X168590061Y-136976786D02*
X168590061Y-136900596D01*
X168590061Y-136710120D02*
X169123395Y-136519644D01*
X169123395Y-136519644D02*
X168590061Y-136329167D01*
X169123395Y-135910120D02*
X169085300Y-135986310D01*
X169085300Y-135986310D02*
X169047204Y-136024405D01*
X169047204Y-136024405D02*
X168971014Y-136062501D01*
X168971014Y-136062501D02*
X168742442Y-136062501D01*
X168742442Y-136062501D02*
X168666252Y-136024405D01*
X168666252Y-136024405D02*
X168628157Y-135986310D01*
X168628157Y-135986310D02*
X168590061Y-135910120D01*
X168590061Y-135910120D02*
X168590061Y-135795834D01*
X168590061Y-135795834D02*
X168628157Y-135719643D01*
X168628157Y-135719643D02*
X168666252Y-135681548D01*
X168666252Y-135681548D02*
X168742442Y-135643453D01*
X168742442Y-135643453D02*
X168971014Y-135643453D01*
X168971014Y-135643453D02*
X169047204Y-135681548D01*
X169047204Y-135681548D02*
X169085300Y-135719643D01*
X169085300Y-135719643D02*
X169123395Y-135795834D01*
X169123395Y-135795834D02*
X169123395Y-135910120D01*
X169047204Y-134843452D02*
X169085300Y-134881548D01*
X169085300Y-134881548D02*
X169123395Y-134995833D01*
X169123395Y-134995833D02*
X169123395Y-135072024D01*
X169123395Y-135072024D02*
X169085300Y-135186310D01*
X169085300Y-135186310D02*
X169009109Y-135262500D01*
X169009109Y-135262500D02*
X168932919Y-135300595D01*
X168932919Y-135300595D02*
X168780538Y-135338691D01*
X168780538Y-135338691D02*
X168666252Y-135338691D01*
X168666252Y-135338691D02*
X168513871Y-135300595D01*
X168513871Y-135300595D02*
X168437680Y-135262500D01*
X168437680Y-135262500D02*
X168361490Y-135186310D01*
X168361490Y-135186310D02*
X168323395Y-135072024D01*
X168323395Y-135072024D02*
X168323395Y-134995833D01*
X168323395Y-134995833D02*
X168361490Y-134881548D01*
X168361490Y-134881548D02*
X168399585Y-134843452D01*
X169123395Y-134386310D02*
X169085300Y-134462500D01*
X169085300Y-134462500D02*
X169047204Y-134500595D01*
X169047204Y-134500595D02*
X168971014Y-134538691D01*
X168971014Y-134538691D02*
X168742442Y-134538691D01*
X168742442Y-134538691D02*
X168666252Y-134500595D01*
X168666252Y-134500595D02*
X168628157Y-134462500D01*
X168628157Y-134462500D02*
X168590061Y-134386310D01*
X168590061Y-134386310D02*
X168590061Y-134272024D01*
X168590061Y-134272024D02*
X168628157Y-134195833D01*
X168628157Y-134195833D02*
X168666252Y-134157738D01*
X168666252Y-134157738D02*
X168742442Y-134119643D01*
X168742442Y-134119643D02*
X168971014Y-134119643D01*
X168971014Y-134119643D02*
X169047204Y-134157738D01*
X169047204Y-134157738D02*
X169085300Y-134195833D01*
X169085300Y-134195833D02*
X169123395Y-134272024D01*
X169123395Y-134272024D02*
X169123395Y-134386310D01*
X168590061Y-133776785D02*
X169123395Y-133776785D01*
X168666252Y-133776785D02*
X168628157Y-133738690D01*
X168628157Y-133738690D02*
X168590061Y-133662500D01*
X168590061Y-133662500D02*
X168590061Y-133548214D01*
X168590061Y-133548214D02*
X168628157Y-133472023D01*
X168628157Y-133472023D02*
X168704347Y-133433928D01*
X168704347Y-133433928D02*
X169123395Y-133433928D01*
X168590061Y-133052975D02*
X169123395Y-133052975D01*
X168666252Y-133052975D02*
X168628157Y-133014880D01*
X168628157Y-133014880D02*
X168590061Y-132938690D01*
X168590061Y-132938690D02*
X168590061Y-132824404D01*
X168590061Y-132824404D02*
X168628157Y-132748213D01*
X168628157Y-132748213D02*
X168704347Y-132710118D01*
X168704347Y-132710118D02*
X169123395Y-132710118D01*
X169123395Y-131910118D02*
X169123395Y-132367261D01*
X169123395Y-132138689D02*
X168323395Y-132138689D01*
X168323395Y-132138689D02*
X168437680Y-132214880D01*
X168437680Y-132214880D02*
X168513871Y-132291070D01*
X168513871Y-132291070D02*
X168551966Y-132367261D01*
D12*
X207793419Y-87666785D02*
X206793419Y-87666785D01*
X206793419Y-87666785D02*
X207507704Y-87333452D01*
X207507704Y-87333452D02*
X206793419Y-87000119D01*
X206793419Y-87000119D02*
X207793419Y-87000119D01*
X207793419Y-86523928D02*
X207126752Y-86523928D01*
X206793419Y-86523928D02*
X206841038Y-86571547D01*
X206841038Y-86571547D02*
X206888657Y-86523928D01*
X206888657Y-86523928D02*
X206841038Y-86476309D01*
X206841038Y-86476309D02*
X206793419Y-86523928D01*
X206793419Y-86523928D02*
X206888657Y-86523928D01*
X207745800Y-85619167D02*
X207793419Y-85714405D01*
X207793419Y-85714405D02*
X207793419Y-85904881D01*
X207793419Y-85904881D02*
X207745800Y-86000119D01*
X207745800Y-86000119D02*
X207698180Y-86047738D01*
X207698180Y-86047738D02*
X207602942Y-86095357D01*
X207602942Y-86095357D02*
X207317228Y-86095357D01*
X207317228Y-86095357D02*
X207221990Y-86047738D01*
X207221990Y-86047738D02*
X207174371Y-86000119D01*
X207174371Y-86000119D02*
X207126752Y-85904881D01*
X207126752Y-85904881D02*
X207126752Y-85714405D01*
X207126752Y-85714405D02*
X207174371Y-85619167D01*
X207793419Y-85190595D02*
X207126752Y-85190595D01*
X207317228Y-85190595D02*
X207221990Y-85142976D01*
X207221990Y-85142976D02*
X207174371Y-85095357D01*
X207174371Y-85095357D02*
X207126752Y-85000119D01*
X207126752Y-85000119D02*
X207126752Y-84904881D01*
X207793419Y-84428690D02*
X207745800Y-84523928D01*
X207745800Y-84523928D02*
X207698180Y-84571547D01*
X207698180Y-84571547D02*
X207602942Y-84619166D01*
X207602942Y-84619166D02*
X207317228Y-84619166D01*
X207317228Y-84619166D02*
X207221990Y-84571547D01*
X207221990Y-84571547D02*
X207174371Y-84523928D01*
X207174371Y-84523928D02*
X207126752Y-84428690D01*
X207126752Y-84428690D02*
X207126752Y-84285833D01*
X207126752Y-84285833D02*
X207174371Y-84190595D01*
X207174371Y-84190595D02*
X207221990Y-84142976D01*
X207221990Y-84142976D02*
X207317228Y-84095357D01*
X207317228Y-84095357D02*
X207602942Y-84095357D01*
X207602942Y-84095357D02*
X207698180Y-84142976D01*
X207698180Y-84142976D02*
X207745800Y-84190595D01*
X207745800Y-84190595D02*
X207793419Y-84285833D01*
X207793419Y-84285833D02*
X207793419Y-84428690D01*
X207745800Y-83714404D02*
X207793419Y-83571547D01*
X207793419Y-83571547D02*
X207793419Y-83333452D01*
X207793419Y-83333452D02*
X207745800Y-83238214D01*
X207745800Y-83238214D02*
X207698180Y-83190595D01*
X207698180Y-83190595D02*
X207602942Y-83142976D01*
X207602942Y-83142976D02*
X207507704Y-83142976D01*
X207507704Y-83142976D02*
X207412466Y-83190595D01*
X207412466Y-83190595D02*
X207364847Y-83238214D01*
X207364847Y-83238214D02*
X207317228Y-83333452D01*
X207317228Y-83333452D02*
X207269609Y-83523928D01*
X207269609Y-83523928D02*
X207221990Y-83619166D01*
X207221990Y-83619166D02*
X207174371Y-83666785D01*
X207174371Y-83666785D02*
X207079133Y-83714404D01*
X207079133Y-83714404D02*
X206983895Y-83714404D01*
X206983895Y-83714404D02*
X206888657Y-83666785D01*
X206888657Y-83666785D02*
X206841038Y-83619166D01*
X206841038Y-83619166D02*
X206793419Y-83523928D01*
X206793419Y-83523928D02*
X206793419Y-83285833D01*
X206793419Y-83285833D02*
X206841038Y-83142976D01*
X207793419Y-82714404D02*
X206793419Y-82714404D01*
X206793419Y-82714404D02*
X206793419Y-82476309D01*
X206793419Y-82476309D02*
X206841038Y-82333452D01*
X206841038Y-82333452D02*
X206936276Y-82238214D01*
X206936276Y-82238214D02*
X207031514Y-82190595D01*
X207031514Y-82190595D02*
X207221990Y-82142976D01*
X207221990Y-82142976D02*
X207364847Y-82142976D01*
X207364847Y-82142976D02*
X207555323Y-82190595D01*
X207555323Y-82190595D02*
X207650561Y-82238214D01*
X207650561Y-82238214D02*
X207745800Y-82333452D01*
X207745800Y-82333452D02*
X207793419Y-82476309D01*
X207793419Y-82476309D02*
X207793419Y-82714404D01*
X207793419Y-81190595D02*
X207793419Y-81762023D01*
X207793419Y-81476309D02*
X206793419Y-81476309D01*
X206793419Y-81476309D02*
X206936276Y-81571547D01*
X206936276Y-81571547D02*
X207031514Y-81666785D01*
X207031514Y-81666785D02*
X207079133Y-81762023D01*
D10*
X160439133Y-101099073D02*
X160378657Y-101159550D01*
X160378657Y-101159550D02*
X160197228Y-101220026D01*
X160197228Y-101220026D02*
X160076276Y-101220026D01*
X160076276Y-101220026D02*
X159894847Y-101159550D01*
X159894847Y-101159550D02*
X159773895Y-101038597D01*
X159773895Y-101038597D02*
X159713418Y-100917645D01*
X159713418Y-100917645D02*
X159652942Y-100675740D01*
X159652942Y-100675740D02*
X159652942Y-100494311D01*
X159652942Y-100494311D02*
X159713418Y-100252407D01*
X159713418Y-100252407D02*
X159773895Y-100131454D01*
X159773895Y-100131454D02*
X159894847Y-100010502D01*
X159894847Y-100010502D02*
X160076276Y-99950026D01*
X160076276Y-99950026D02*
X160197228Y-99950026D01*
X160197228Y-99950026D02*
X160378657Y-100010502D01*
X160378657Y-100010502D02*
X160439133Y-100070978D01*
X160862466Y-99950026D02*
X161648657Y-99950026D01*
X161648657Y-99950026D02*
X161225323Y-100433835D01*
X161225323Y-100433835D02*
X161406752Y-100433835D01*
X161406752Y-100433835D02*
X161527704Y-100494311D01*
X161527704Y-100494311D02*
X161588180Y-100554788D01*
X161588180Y-100554788D02*
X161648657Y-100675740D01*
X161648657Y-100675740D02*
X161648657Y-100978121D01*
X161648657Y-100978121D02*
X161588180Y-101099073D01*
X161588180Y-101099073D02*
X161527704Y-101159550D01*
X161527704Y-101159550D02*
X161406752Y-101220026D01*
X161406752Y-101220026D02*
X161043895Y-101220026D01*
X161043895Y-101220026D02*
X160922942Y-101159550D01*
X160922942Y-101159550D02*
X160862466Y-101099073D01*
D13*
X119086750Y-120402595D02*
X118705798Y-120402595D01*
X118705798Y-120402595D02*
X118705798Y-119602595D01*
X119353417Y-120402595D02*
X119353417Y-119602595D01*
X119353417Y-119602595D02*
X119620083Y-120174023D01*
X119620083Y-120174023D02*
X119886750Y-119602595D01*
X119886750Y-119602595D02*
X119886750Y-120402595D01*
X120191512Y-119602595D02*
X120686750Y-119602595D01*
X120686750Y-119602595D02*
X120420084Y-119907357D01*
X120420084Y-119907357D02*
X120534369Y-119907357D01*
X120534369Y-119907357D02*
X120610560Y-119945452D01*
X120610560Y-119945452D02*
X120648655Y-119983547D01*
X120648655Y-119983547D02*
X120686750Y-120059738D01*
X120686750Y-120059738D02*
X120686750Y-120250214D01*
X120686750Y-120250214D02*
X120648655Y-120326404D01*
X120648655Y-120326404D02*
X120610560Y-120364500D01*
X120610560Y-120364500D02*
X120534369Y-120402595D01*
X120534369Y-120402595D02*
X120305798Y-120402595D01*
X120305798Y-120402595D02*
X120229607Y-120364500D01*
X120229607Y-120364500D02*
X120191512Y-120326404D01*
X120953417Y-119602595D02*
X121448655Y-119602595D01*
X121448655Y-119602595D02*
X121181989Y-119907357D01*
X121181989Y-119907357D02*
X121296274Y-119907357D01*
X121296274Y-119907357D02*
X121372465Y-119945452D01*
X121372465Y-119945452D02*
X121410560Y-119983547D01*
X121410560Y-119983547D02*
X121448655Y-120059738D01*
X121448655Y-120059738D02*
X121448655Y-120250214D01*
X121448655Y-120250214D02*
X121410560Y-120326404D01*
X121410560Y-120326404D02*
X121372465Y-120364500D01*
X121372465Y-120364500D02*
X121296274Y-120402595D01*
X121296274Y-120402595D02*
X121067703Y-120402595D01*
X121067703Y-120402595D02*
X120991512Y-120364500D01*
X120991512Y-120364500D02*
X120953417Y-120326404D01*
X121715322Y-119602595D02*
X122248656Y-119602595D01*
X122248656Y-119602595D02*
X121905798Y-120402595D01*
X122439132Y-119602595D02*
X122705799Y-120402595D01*
X122705799Y-120402595D02*
X122972465Y-119602595D01*
X123353417Y-120402595D02*
X123277227Y-120364500D01*
X123277227Y-120364500D02*
X123239132Y-120326404D01*
X123239132Y-120326404D02*
X123201036Y-120250214D01*
X123201036Y-120250214D02*
X123201036Y-120021642D01*
X123201036Y-120021642D02*
X123239132Y-119945452D01*
X123239132Y-119945452D02*
X123277227Y-119907357D01*
X123277227Y-119907357D02*
X123353417Y-119869261D01*
X123353417Y-119869261D02*
X123467703Y-119869261D01*
X123467703Y-119869261D02*
X123543894Y-119907357D01*
X123543894Y-119907357D02*
X123581989Y-119945452D01*
X123581989Y-119945452D02*
X123620084Y-120021642D01*
X123620084Y-120021642D02*
X123620084Y-120250214D01*
X123620084Y-120250214D02*
X123581989Y-120326404D01*
X123581989Y-120326404D02*
X123543894Y-120364500D01*
X123543894Y-120364500D02*
X123467703Y-120402595D01*
X123467703Y-120402595D02*
X123353417Y-120402595D01*
X124077227Y-120402595D02*
X124001037Y-120364500D01*
X124001037Y-120364500D02*
X123962942Y-120288309D01*
X123962942Y-120288309D02*
X123962942Y-119602595D01*
X124267704Y-119869261D02*
X124572466Y-119869261D01*
X124381990Y-119602595D02*
X124381990Y-120288309D01*
X124381990Y-120288309D02*
X124420085Y-120364500D01*
X124420085Y-120364500D02*
X124496275Y-120402595D01*
X124496275Y-120402595D02*
X124572466Y-120402595D01*
X125181990Y-120402595D02*
X125181990Y-119983547D01*
X125181990Y-119983547D02*
X125143895Y-119907357D01*
X125143895Y-119907357D02*
X125067704Y-119869261D01*
X125067704Y-119869261D02*
X124915323Y-119869261D01*
X124915323Y-119869261D02*
X124839133Y-119907357D01*
X125181990Y-120364500D02*
X125105799Y-120402595D01*
X125105799Y-120402595D02*
X124915323Y-120402595D01*
X124915323Y-120402595D02*
X124839133Y-120364500D01*
X124839133Y-120364500D02*
X124801037Y-120288309D01*
X124801037Y-120288309D02*
X124801037Y-120212119D01*
X124801037Y-120212119D02*
X124839133Y-120135928D01*
X124839133Y-120135928D02*
X124915323Y-120097833D01*
X124915323Y-120097833D02*
X125105799Y-120097833D01*
X125105799Y-120097833D02*
X125181990Y-120059738D01*
X125905800Y-119869261D02*
X125905800Y-120516880D01*
X125905800Y-120516880D02*
X125867705Y-120593071D01*
X125867705Y-120593071D02*
X125829609Y-120631166D01*
X125829609Y-120631166D02*
X125753419Y-120669261D01*
X125753419Y-120669261D02*
X125639133Y-120669261D01*
X125639133Y-120669261D02*
X125562943Y-120631166D01*
X125905800Y-120364500D02*
X125829609Y-120402595D01*
X125829609Y-120402595D02*
X125677228Y-120402595D01*
X125677228Y-120402595D02*
X125601038Y-120364500D01*
X125601038Y-120364500D02*
X125562943Y-120326404D01*
X125562943Y-120326404D02*
X125524847Y-120250214D01*
X125524847Y-120250214D02*
X125524847Y-120021642D01*
X125524847Y-120021642D02*
X125562943Y-119945452D01*
X125562943Y-119945452D02*
X125601038Y-119907357D01*
X125601038Y-119907357D02*
X125677228Y-119869261D01*
X125677228Y-119869261D02*
X125829609Y-119869261D01*
X125829609Y-119869261D02*
X125905800Y-119907357D01*
X126591515Y-120364500D02*
X126515324Y-120402595D01*
X126515324Y-120402595D02*
X126362943Y-120402595D01*
X126362943Y-120402595D02*
X126286753Y-120364500D01*
X126286753Y-120364500D02*
X126248657Y-120288309D01*
X126248657Y-120288309D02*
X126248657Y-119983547D01*
X126248657Y-119983547D02*
X126286753Y-119907357D01*
X126286753Y-119907357D02*
X126362943Y-119869261D01*
X126362943Y-119869261D02*
X126515324Y-119869261D01*
X126515324Y-119869261D02*
X126591515Y-119907357D01*
X126591515Y-119907357D02*
X126629610Y-119983547D01*
X126629610Y-119983547D02*
X126629610Y-120059738D01*
X126629610Y-120059738D02*
X126248657Y-120135928D01*
X127429610Y-120402595D02*
X127162943Y-120021642D01*
X126972467Y-120402595D02*
X126972467Y-119602595D01*
X126972467Y-119602595D02*
X127277229Y-119602595D01*
X127277229Y-119602595D02*
X127353419Y-119640690D01*
X127353419Y-119640690D02*
X127391514Y-119678785D01*
X127391514Y-119678785D02*
X127429610Y-119754976D01*
X127429610Y-119754976D02*
X127429610Y-119869261D01*
X127429610Y-119869261D02*
X127391514Y-119945452D01*
X127391514Y-119945452D02*
X127353419Y-119983547D01*
X127353419Y-119983547D02*
X127277229Y-120021642D01*
X127277229Y-120021642D02*
X126972467Y-120021642D01*
X128077229Y-120364500D02*
X128001038Y-120402595D01*
X128001038Y-120402595D02*
X127848657Y-120402595D01*
X127848657Y-120402595D02*
X127772467Y-120364500D01*
X127772467Y-120364500D02*
X127734371Y-120288309D01*
X127734371Y-120288309D02*
X127734371Y-119983547D01*
X127734371Y-119983547D02*
X127772467Y-119907357D01*
X127772467Y-119907357D02*
X127848657Y-119869261D01*
X127848657Y-119869261D02*
X128001038Y-119869261D01*
X128001038Y-119869261D02*
X128077229Y-119907357D01*
X128077229Y-119907357D02*
X128115324Y-119983547D01*
X128115324Y-119983547D02*
X128115324Y-120059738D01*
X128115324Y-120059738D02*
X127734371Y-120135928D01*
X128801038Y-119869261D02*
X128801038Y-120516880D01*
X128801038Y-120516880D02*
X128762943Y-120593071D01*
X128762943Y-120593071D02*
X128724847Y-120631166D01*
X128724847Y-120631166D02*
X128648657Y-120669261D01*
X128648657Y-120669261D02*
X128534371Y-120669261D01*
X128534371Y-120669261D02*
X128458181Y-120631166D01*
X128801038Y-120364500D02*
X128724847Y-120402595D01*
X128724847Y-120402595D02*
X128572466Y-120402595D01*
X128572466Y-120402595D02*
X128496276Y-120364500D01*
X128496276Y-120364500D02*
X128458181Y-120326404D01*
X128458181Y-120326404D02*
X128420085Y-120250214D01*
X128420085Y-120250214D02*
X128420085Y-120021642D01*
X128420085Y-120021642D02*
X128458181Y-119945452D01*
X128458181Y-119945452D02*
X128496276Y-119907357D01*
X128496276Y-119907357D02*
X128572466Y-119869261D01*
X128572466Y-119869261D02*
X128724847Y-119869261D01*
X128724847Y-119869261D02*
X128801038Y-119907357D01*
X129524848Y-119869261D02*
X129524848Y-120402595D01*
X129181991Y-119869261D02*
X129181991Y-120288309D01*
X129181991Y-120288309D02*
X129220086Y-120364500D01*
X129220086Y-120364500D02*
X129296276Y-120402595D01*
X129296276Y-120402595D02*
X129410562Y-120402595D01*
X129410562Y-120402595D02*
X129486753Y-120364500D01*
X129486753Y-120364500D02*
X129524848Y-120326404D01*
X130020086Y-120402595D02*
X129943896Y-120364500D01*
X129943896Y-120364500D02*
X129905801Y-120288309D01*
X129905801Y-120288309D02*
X129905801Y-119602595D01*
X130667706Y-120402595D02*
X130667706Y-119983547D01*
X130667706Y-119983547D02*
X130629611Y-119907357D01*
X130629611Y-119907357D02*
X130553420Y-119869261D01*
X130553420Y-119869261D02*
X130401039Y-119869261D01*
X130401039Y-119869261D02*
X130324849Y-119907357D01*
X130667706Y-120364500D02*
X130591515Y-120402595D01*
X130591515Y-120402595D02*
X130401039Y-120402595D01*
X130401039Y-120402595D02*
X130324849Y-120364500D01*
X130324849Y-120364500D02*
X130286753Y-120288309D01*
X130286753Y-120288309D02*
X130286753Y-120212119D01*
X130286753Y-120212119D02*
X130324849Y-120135928D01*
X130324849Y-120135928D02*
X130401039Y-120097833D01*
X130401039Y-120097833D02*
X130591515Y-120097833D01*
X130591515Y-120097833D02*
X130667706Y-120059738D01*
X130934373Y-119869261D02*
X131239135Y-119869261D01*
X131048659Y-119602595D02*
X131048659Y-120288309D01*
X131048659Y-120288309D02*
X131086754Y-120364500D01*
X131086754Y-120364500D02*
X131162944Y-120402595D01*
X131162944Y-120402595D02*
X131239135Y-120402595D01*
X131620087Y-120402595D02*
X131543897Y-120364500D01*
X131543897Y-120364500D02*
X131505802Y-120326404D01*
X131505802Y-120326404D02*
X131467706Y-120250214D01*
X131467706Y-120250214D02*
X131467706Y-120021642D01*
X131467706Y-120021642D02*
X131505802Y-119945452D01*
X131505802Y-119945452D02*
X131543897Y-119907357D01*
X131543897Y-119907357D02*
X131620087Y-119869261D01*
X131620087Y-119869261D02*
X131734373Y-119869261D01*
X131734373Y-119869261D02*
X131810564Y-119907357D01*
X131810564Y-119907357D02*
X131848659Y-119945452D01*
X131848659Y-119945452D02*
X131886754Y-120021642D01*
X131886754Y-120021642D02*
X131886754Y-120250214D01*
X131886754Y-120250214D02*
X131848659Y-120326404D01*
X131848659Y-120326404D02*
X131810564Y-120364500D01*
X131810564Y-120364500D02*
X131734373Y-120402595D01*
X131734373Y-120402595D02*
X131620087Y-120402595D01*
X132229612Y-120402595D02*
X132229612Y-119869261D01*
X132229612Y-120021642D02*
X132267707Y-119945452D01*
X132267707Y-119945452D02*
X132305802Y-119907357D01*
X132305802Y-119907357D02*
X132381993Y-119869261D01*
X132381993Y-119869261D02*
X132458183Y-119869261D01*
X133143897Y-120402595D02*
X132686754Y-120402595D01*
X132915326Y-120402595D02*
X132915326Y-119602595D01*
X132915326Y-119602595D02*
X132839135Y-119716880D01*
X132839135Y-119716880D02*
X132762945Y-119793071D01*
X132762945Y-119793071D02*
X132686754Y-119831166D01*
D10*
X142897466Y-116879550D02*
X143078895Y-116940026D01*
X143078895Y-116940026D02*
X143381276Y-116940026D01*
X143381276Y-116940026D02*
X143502228Y-116879550D01*
X143502228Y-116879550D02*
X143562704Y-116819073D01*
X143562704Y-116819073D02*
X143623181Y-116698121D01*
X143623181Y-116698121D02*
X143623181Y-116577169D01*
X143623181Y-116577169D02*
X143562704Y-116456216D01*
X143562704Y-116456216D02*
X143502228Y-116395740D01*
X143502228Y-116395740D02*
X143381276Y-116335264D01*
X143381276Y-116335264D02*
X143139371Y-116274788D01*
X143139371Y-116274788D02*
X143018419Y-116214311D01*
X143018419Y-116214311D02*
X142957942Y-116153835D01*
X142957942Y-116153835D02*
X142897466Y-116032883D01*
X142897466Y-116032883D02*
X142897466Y-115911930D01*
X142897466Y-115911930D02*
X142957942Y-115790978D01*
X142957942Y-115790978D02*
X143018419Y-115730502D01*
X143018419Y-115730502D02*
X143139371Y-115670026D01*
X143139371Y-115670026D02*
X143441752Y-115670026D01*
X143441752Y-115670026D02*
X143623181Y-115730502D01*
X144046514Y-115670026D02*
X144348895Y-116940026D01*
X144348895Y-116940026D02*
X144590800Y-116032883D01*
X144590800Y-116032883D02*
X144832705Y-116940026D01*
X144832705Y-116940026D02*
X145135086Y-115670026D01*
X145558419Y-115790978D02*
X145618895Y-115730502D01*
X145618895Y-115730502D02*
X145739848Y-115670026D01*
X145739848Y-115670026D02*
X146042229Y-115670026D01*
X146042229Y-115670026D02*
X146163181Y-115730502D01*
X146163181Y-115730502D02*
X146223657Y-115790978D01*
X146223657Y-115790978D02*
X146284134Y-115911930D01*
X146284134Y-115911930D02*
X146284134Y-116032883D01*
X146284134Y-116032883D02*
X146223657Y-116214311D01*
X146223657Y-116214311D02*
X145497943Y-116940026D01*
X145497943Y-116940026D02*
X146284134Y-116940026D01*
D13*
X180067467Y-104536404D02*
X180029371Y-104574500D01*
X180029371Y-104574500D02*
X179915086Y-104612595D01*
X179915086Y-104612595D02*
X179838895Y-104612595D01*
X179838895Y-104612595D02*
X179724609Y-104574500D01*
X179724609Y-104574500D02*
X179648419Y-104498309D01*
X179648419Y-104498309D02*
X179610324Y-104422119D01*
X179610324Y-104422119D02*
X179572228Y-104269738D01*
X179572228Y-104269738D02*
X179572228Y-104155452D01*
X179572228Y-104155452D02*
X179610324Y-104003071D01*
X179610324Y-104003071D02*
X179648419Y-103926880D01*
X179648419Y-103926880D02*
X179724609Y-103850690D01*
X179724609Y-103850690D02*
X179838895Y-103812595D01*
X179838895Y-103812595D02*
X179915086Y-103812595D01*
X179915086Y-103812595D02*
X180029371Y-103850690D01*
X180029371Y-103850690D02*
X180067467Y-103888785D01*
X180753181Y-103812595D02*
X180600800Y-103812595D01*
X180600800Y-103812595D02*
X180524609Y-103850690D01*
X180524609Y-103850690D02*
X180486514Y-103888785D01*
X180486514Y-103888785D02*
X180410324Y-104003071D01*
X180410324Y-104003071D02*
X180372228Y-104155452D01*
X180372228Y-104155452D02*
X180372228Y-104460214D01*
X180372228Y-104460214D02*
X180410324Y-104536404D01*
X180410324Y-104536404D02*
X180448419Y-104574500D01*
X180448419Y-104574500D02*
X180524609Y-104612595D01*
X180524609Y-104612595D02*
X180676990Y-104612595D01*
X180676990Y-104612595D02*
X180753181Y-104574500D01*
X180753181Y-104574500D02*
X180791276Y-104536404D01*
X180791276Y-104536404D02*
X180829371Y-104460214D01*
X180829371Y-104460214D02*
X180829371Y-104269738D01*
X180829371Y-104269738D02*
X180791276Y-104193547D01*
X180791276Y-104193547D02*
X180753181Y-104155452D01*
X180753181Y-104155452D02*
X180676990Y-104117357D01*
X180676990Y-104117357D02*
X180524609Y-104117357D01*
X180524609Y-104117357D02*
X180448419Y-104155452D01*
X180448419Y-104155452D02*
X180410324Y-104193547D01*
X180410324Y-104193547D02*
X180372228Y-104269738D01*
D10*
X143577373Y-125109166D02*
X143637850Y-125169642D01*
X143637850Y-125169642D02*
X143698326Y-125351071D01*
X143698326Y-125351071D02*
X143698326Y-125472023D01*
X143698326Y-125472023D02*
X143637850Y-125653452D01*
X143637850Y-125653452D02*
X143516897Y-125774404D01*
X143516897Y-125774404D02*
X143395945Y-125834881D01*
X143395945Y-125834881D02*
X143154040Y-125895357D01*
X143154040Y-125895357D02*
X142972611Y-125895357D01*
X142972611Y-125895357D02*
X142730707Y-125834881D01*
X142730707Y-125834881D02*
X142609754Y-125774404D01*
X142609754Y-125774404D02*
X142488802Y-125653452D01*
X142488802Y-125653452D02*
X142428326Y-125472023D01*
X142428326Y-125472023D02*
X142428326Y-125351071D01*
X142428326Y-125351071D02*
X142488802Y-125169642D01*
X142488802Y-125169642D02*
X142549278Y-125109166D01*
X142549278Y-124625357D02*
X142488802Y-124564881D01*
X142488802Y-124564881D02*
X142428326Y-124443928D01*
X142428326Y-124443928D02*
X142428326Y-124141547D01*
X142428326Y-124141547D02*
X142488802Y-124020595D01*
X142488802Y-124020595D02*
X142549278Y-123960119D01*
X142549278Y-123960119D02*
X142670230Y-123899642D01*
X142670230Y-123899642D02*
X142791183Y-123899642D01*
X142791183Y-123899642D02*
X142972611Y-123960119D01*
X142972611Y-123960119D02*
X143698326Y-124685833D01*
X143698326Y-124685833D02*
X143698326Y-123899642D01*
D11*
X191462619Y-100242857D02*
X190986428Y-100576190D01*
X191462619Y-100814285D02*
X190462619Y-100814285D01*
X190462619Y-100814285D02*
X190462619Y-100433333D01*
X190462619Y-100433333D02*
X190510238Y-100338095D01*
X190510238Y-100338095D02*
X190557857Y-100290476D01*
X190557857Y-100290476D02*
X190653095Y-100242857D01*
X190653095Y-100242857D02*
X190795952Y-100242857D01*
X190795952Y-100242857D02*
X190891190Y-100290476D01*
X190891190Y-100290476D02*
X190938809Y-100338095D01*
X190938809Y-100338095D02*
X190986428Y-100433333D01*
X190986428Y-100433333D02*
X190986428Y-100814285D01*
X191462619Y-99290476D02*
X191462619Y-99861904D01*
X191462619Y-99576190D02*
X190462619Y-99576190D01*
X190462619Y-99576190D02*
X190605476Y-99671428D01*
X190605476Y-99671428D02*
X190700714Y-99766666D01*
X190700714Y-99766666D02*
X190748333Y-99861904D01*
X190891190Y-98719047D02*
X190843571Y-98814285D01*
X190843571Y-98814285D02*
X190795952Y-98861904D01*
X190795952Y-98861904D02*
X190700714Y-98909523D01*
X190700714Y-98909523D02*
X190653095Y-98909523D01*
X190653095Y-98909523D02*
X190557857Y-98861904D01*
X190557857Y-98861904D02*
X190510238Y-98814285D01*
X190510238Y-98814285D02*
X190462619Y-98719047D01*
X190462619Y-98719047D02*
X190462619Y-98528571D01*
X190462619Y-98528571D02*
X190510238Y-98433333D01*
X190510238Y-98433333D02*
X190557857Y-98385714D01*
X190557857Y-98385714D02*
X190653095Y-98338095D01*
X190653095Y-98338095D02*
X190700714Y-98338095D01*
X190700714Y-98338095D02*
X190795952Y-98385714D01*
X190795952Y-98385714D02*
X190843571Y-98433333D01*
X190843571Y-98433333D02*
X190891190Y-98528571D01*
X190891190Y-98528571D02*
X190891190Y-98719047D01*
X190891190Y-98719047D02*
X190938809Y-98814285D01*
X190938809Y-98814285D02*
X190986428Y-98861904D01*
X190986428Y-98861904D02*
X191081666Y-98909523D01*
X191081666Y-98909523D02*
X191272142Y-98909523D01*
X191272142Y-98909523D02*
X191367380Y-98861904D01*
X191367380Y-98861904D02*
X191415000Y-98814285D01*
X191415000Y-98814285D02*
X191462619Y-98719047D01*
X191462619Y-98719047D02*
X191462619Y-98528571D01*
X191462619Y-98528571D02*
X191415000Y-98433333D01*
X191415000Y-98433333D02*
X191367380Y-98385714D01*
X191367380Y-98385714D02*
X191272142Y-98338095D01*
X191272142Y-98338095D02*
X191081666Y-98338095D01*
X191081666Y-98338095D02*
X190986428Y-98385714D01*
X190986428Y-98385714D02*
X190938809Y-98433333D01*
X190938809Y-98433333D02*
X190891190Y-98528571D01*
D10*
X117902373Y-125844166D02*
X117962850Y-125904642D01*
X117962850Y-125904642D02*
X118023326Y-126086071D01*
X118023326Y-126086071D02*
X118023326Y-126207023D01*
X118023326Y-126207023D02*
X117962850Y-126388452D01*
X117962850Y-126388452D02*
X117841897Y-126509404D01*
X117841897Y-126509404D02*
X117720945Y-126569881D01*
X117720945Y-126569881D02*
X117479040Y-126630357D01*
X117479040Y-126630357D02*
X117297611Y-126630357D01*
X117297611Y-126630357D02*
X117055707Y-126569881D01*
X117055707Y-126569881D02*
X116934754Y-126509404D01*
X116934754Y-126509404D02*
X116813802Y-126388452D01*
X116813802Y-126388452D02*
X116753326Y-126207023D01*
X116753326Y-126207023D02*
X116753326Y-126086071D01*
X116753326Y-126086071D02*
X116813802Y-125904642D01*
X116813802Y-125904642D02*
X116874278Y-125844166D01*
X118023326Y-124634642D02*
X118023326Y-125360357D01*
X118023326Y-124997500D02*
X116753326Y-124997500D01*
X116753326Y-124997500D02*
X116934754Y-125118452D01*
X116934754Y-125118452D02*
X117055707Y-125239404D01*
X117055707Y-125239404D02*
X117116183Y-125360357D01*
X208818326Y-119106428D02*
X208213564Y-119529762D01*
X208818326Y-119832143D02*
X207548326Y-119832143D01*
X207548326Y-119832143D02*
X207548326Y-119348333D01*
X207548326Y-119348333D02*
X207608802Y-119227381D01*
X207608802Y-119227381D02*
X207669278Y-119166904D01*
X207669278Y-119166904D02*
X207790230Y-119106428D01*
X207790230Y-119106428D02*
X207971659Y-119106428D01*
X207971659Y-119106428D02*
X208092611Y-119166904D01*
X208092611Y-119166904D02*
X208153088Y-119227381D01*
X208153088Y-119227381D02*
X208213564Y-119348333D01*
X208213564Y-119348333D02*
X208213564Y-119832143D01*
X208818326Y-117896904D02*
X208818326Y-118622619D01*
X208818326Y-118259762D02*
X207548326Y-118259762D01*
X207548326Y-118259762D02*
X207729754Y-118380714D01*
X207729754Y-118380714D02*
X207850707Y-118501666D01*
X207850707Y-118501666D02*
X207911183Y-118622619D01*
X207669278Y-117413095D02*
X207608802Y-117352619D01*
X207608802Y-117352619D02*
X207548326Y-117231666D01*
X207548326Y-117231666D02*
X207548326Y-116929285D01*
X207548326Y-116929285D02*
X207608802Y-116808333D01*
X207608802Y-116808333D02*
X207669278Y-116747857D01*
X207669278Y-116747857D02*
X207790230Y-116687380D01*
X207790230Y-116687380D02*
X207911183Y-116687380D01*
X207911183Y-116687380D02*
X208092611Y-116747857D01*
X208092611Y-116747857D02*
X208818326Y-117473571D01*
X208818326Y-117473571D02*
X208818326Y-116687380D01*
X164292823Y-126861380D02*
X164292823Y-125761380D01*
X165445205Y-126756619D02*
X165392824Y-126809000D01*
X165392824Y-126809000D02*
X165235681Y-126861380D01*
X165235681Y-126861380D02*
X165130919Y-126861380D01*
X165130919Y-126861380D02*
X164973776Y-126809000D01*
X164973776Y-126809000D02*
X164869014Y-126704238D01*
X164869014Y-126704238D02*
X164816633Y-126599476D01*
X164816633Y-126599476D02*
X164764252Y-126389952D01*
X164764252Y-126389952D02*
X164764252Y-126232809D01*
X164764252Y-126232809D02*
X164816633Y-126023285D01*
X164816633Y-126023285D02*
X164869014Y-125918523D01*
X164869014Y-125918523D02*
X164973776Y-125813761D01*
X164973776Y-125813761D02*
X165130919Y-125761380D01*
X165130919Y-125761380D02*
X165235681Y-125761380D01*
X165235681Y-125761380D02*
X165392824Y-125813761D01*
X165392824Y-125813761D02*
X165445205Y-125866142D01*
X165654729Y-126966142D02*
X166492824Y-126966142D01*
X166964252Y-125761380D02*
X167173776Y-125761380D01*
X167173776Y-125761380D02*
X167278538Y-125813761D01*
X167278538Y-125813761D02*
X167383300Y-125918523D01*
X167383300Y-125918523D02*
X167435681Y-126128047D01*
X167435681Y-126128047D02*
X167435681Y-126494714D01*
X167435681Y-126494714D02*
X167383300Y-126704238D01*
X167383300Y-126704238D02*
X167278538Y-126809000D01*
X167278538Y-126809000D02*
X167173776Y-126861380D01*
X167173776Y-126861380D02*
X166964252Y-126861380D01*
X166964252Y-126861380D02*
X166859490Y-126809000D01*
X166859490Y-126809000D02*
X166754728Y-126704238D01*
X166754728Y-126704238D02*
X166702347Y-126494714D01*
X166702347Y-126494714D02*
X166702347Y-126128047D01*
X166702347Y-126128047D02*
X166754728Y-125918523D01*
X166754728Y-125918523D02*
X166859490Y-125813761D01*
X166859490Y-125813761D02*
X166964252Y-125761380D01*
X167854728Y-126547095D02*
X168378538Y-126547095D01*
X167749966Y-126861380D02*
X168116633Y-125761380D01*
X168116633Y-125761380D02*
X168483300Y-126861380D01*
X169426157Y-126861380D02*
X168797585Y-126861380D01*
X169111871Y-126861380D02*
X169111871Y-125761380D01*
X169111871Y-125761380D02*
X169007109Y-125918523D01*
X169007109Y-125918523D02*
X168902347Y-126023285D01*
X168902347Y-126023285D02*
X168797585Y-126075666D01*
X133339371Y-108819073D02*
X133278895Y-108879550D01*
X133278895Y-108879550D02*
X133097466Y-108940026D01*
X133097466Y-108940026D02*
X132976514Y-108940026D01*
X132976514Y-108940026D02*
X132795085Y-108879550D01*
X132795085Y-108879550D02*
X132674133Y-108758597D01*
X132674133Y-108758597D02*
X132613656Y-108637645D01*
X132613656Y-108637645D02*
X132553180Y-108395740D01*
X132553180Y-108395740D02*
X132553180Y-108214311D01*
X132553180Y-108214311D02*
X132613656Y-107972407D01*
X132613656Y-107972407D02*
X132674133Y-107851454D01*
X132674133Y-107851454D02*
X132795085Y-107730502D01*
X132795085Y-107730502D02*
X132976514Y-107670026D01*
X132976514Y-107670026D02*
X133097466Y-107670026D01*
X133097466Y-107670026D02*
X133278895Y-107730502D01*
X133278895Y-107730502D02*
X133339371Y-107790978D01*
X134548895Y-108940026D02*
X133823180Y-108940026D01*
X134186037Y-108940026D02*
X134186037Y-107670026D01*
X134186037Y-107670026D02*
X134065085Y-107851454D01*
X134065085Y-107851454D02*
X133944133Y-107972407D01*
X133944133Y-107972407D02*
X133823180Y-108032883D01*
X135758419Y-108940026D02*
X135032704Y-108940026D01*
X135395561Y-108940026D02*
X135395561Y-107670026D01*
X135395561Y-107670026D02*
X135274609Y-107851454D01*
X135274609Y-107851454D02*
X135153657Y-107972407D01*
X135153657Y-107972407D02*
X135032704Y-108032883D01*
D12*
X85697466Y-129745119D02*
X85364133Y-129268928D01*
X85126038Y-129745119D02*
X85126038Y-128745119D01*
X85126038Y-128745119D02*
X85506990Y-128745119D01*
X85506990Y-128745119D02*
X85602228Y-128792738D01*
X85602228Y-128792738D02*
X85649847Y-128840357D01*
X85649847Y-128840357D02*
X85697466Y-128935595D01*
X85697466Y-128935595D02*
X85697466Y-129078452D01*
X85697466Y-129078452D02*
X85649847Y-129173690D01*
X85649847Y-129173690D02*
X85602228Y-129221309D01*
X85602228Y-129221309D02*
X85506990Y-129268928D01*
X85506990Y-129268928D02*
X85126038Y-129268928D01*
X86126038Y-129221309D02*
X86459371Y-129221309D01*
X86602228Y-129745119D02*
X86126038Y-129745119D01*
X86126038Y-129745119D02*
X86126038Y-128745119D01*
X86126038Y-128745119D02*
X86602228Y-128745119D01*
X87364133Y-129221309D02*
X87030800Y-129221309D01*
X87030800Y-129745119D02*
X87030800Y-128745119D01*
X87030800Y-128745119D02*
X87506990Y-128745119D01*
X88030800Y-128745119D02*
X88030800Y-128983214D01*
X87792705Y-128887976D02*
X88030800Y-128983214D01*
X88030800Y-128983214D02*
X88268895Y-128887976D01*
X87887943Y-129173690D02*
X88030800Y-128983214D01*
X88030800Y-128983214D02*
X88173657Y-129173690D01*
X88792705Y-128745119D02*
X88792705Y-128983214D01*
X88554610Y-128887976D02*
X88792705Y-128983214D01*
X88792705Y-128983214D02*
X89030800Y-128887976D01*
X88649848Y-129173690D02*
X88792705Y-128983214D01*
X88792705Y-128983214D02*
X88935562Y-129173690D01*
D10*
X187249771Y-90511573D02*
X187189295Y-90572050D01*
X187189295Y-90572050D02*
X187007866Y-90632526D01*
X187007866Y-90632526D02*
X186886914Y-90632526D01*
X186886914Y-90632526D02*
X186705485Y-90572050D01*
X186705485Y-90572050D02*
X186584533Y-90451097D01*
X186584533Y-90451097D02*
X186524056Y-90330145D01*
X186524056Y-90330145D02*
X186463580Y-90088240D01*
X186463580Y-90088240D02*
X186463580Y-89906811D01*
X186463580Y-89906811D02*
X186524056Y-89664907D01*
X186524056Y-89664907D02*
X186584533Y-89543954D01*
X186584533Y-89543954D02*
X186705485Y-89423002D01*
X186705485Y-89423002D02*
X186886914Y-89362526D01*
X186886914Y-89362526D02*
X187007866Y-89362526D01*
X187007866Y-89362526D02*
X187189295Y-89423002D01*
X187189295Y-89423002D02*
X187249771Y-89483478D01*
X188459295Y-90632526D02*
X187733580Y-90632526D01*
X188096437Y-90632526D02*
X188096437Y-89362526D01*
X188096437Y-89362526D02*
X187975485Y-89543954D01*
X187975485Y-89543954D02*
X187854533Y-89664907D01*
X187854533Y-89664907D02*
X187733580Y-89725383D01*
X188943104Y-89483478D02*
X189003580Y-89423002D01*
X189003580Y-89423002D02*
X189124533Y-89362526D01*
X189124533Y-89362526D02*
X189426914Y-89362526D01*
X189426914Y-89362526D02*
X189547866Y-89423002D01*
X189547866Y-89423002D02*
X189608342Y-89483478D01*
X189608342Y-89483478D02*
X189668819Y-89604430D01*
X189668819Y-89604430D02*
X189668819Y-89725383D01*
X189668819Y-89725383D02*
X189608342Y-89906811D01*
X189608342Y-89906811D02*
X188882628Y-90632526D01*
X188882628Y-90632526D02*
X189668819Y-90632526D01*
D11*
X164810800Y-115712500D02*
G75*
G03*
X164810800Y-115712500I-50000J0D01*
G01*
X137380800Y-95602500D02*
X137380800Y-65402500D01*
X137380800Y-65402500D02*
X82880800Y-65402500D01*
X82880800Y-95602500D02*
X137380800Y-95602500D01*
X82880800Y-65402500D02*
X82880800Y-95602500D01*
D15*
X82480800Y-74152500D02*
X82480800Y-74152500D01*
X82380800Y-74152500D02*
X82380800Y-74152500D01*
X82380800Y-74152500D02*
G75*
G03*
X82480800Y-74152500I50000J0D01*
G01*
X82480800Y-74152500D02*
G75*
G03*
X82380800Y-74152500I-50000J0D01*
G01*
D11*
X157773300Y-120807500D02*
X157773300Y-120807500D01*
X157773300Y-120607500D02*
X157773300Y-120607500D01*
X155873300Y-121507500D02*
X154073300Y-121507500D01*
X155873300Y-119907500D02*
X154073300Y-119907500D01*
X157773300Y-120607500D02*
G75*
G03*
X157773300Y-120807500I0J-100000D01*
G01*
X157773300Y-120807500D02*
G75*
G03*
X157773300Y-120607500I0J100000D01*
G01*
X171460800Y-126612500D02*
G75*
G03*
X171460800Y-126612500I-50000J0D01*
G01*
X185270800Y-122932500D02*
G75*
G03*
X185270800Y-122932500I-50000J0D01*
G01*
D16*
X168810800Y-110492500D02*
X168810800Y-110017500D01*
X169285800Y-103272500D02*
X168810800Y-103272500D01*
X169285800Y-110492500D02*
X168810800Y-110492500D01*
X175555800Y-103272500D02*
X176030800Y-103272500D01*
X175555800Y-110492500D02*
X176030800Y-110492500D01*
X176030800Y-103272500D02*
X176030800Y-103747500D01*
X176030800Y-110492500D02*
X176030800Y-110017500D01*
D11*
X129125800Y-114982500D02*
G75*
G03*
X129125800Y-114982500I-50000J0D01*
G01*
X140188300Y-84172500D02*
G75*
G03*
X140188300Y-84172500I-50000J0D01*
G01*
D15*
X154800800Y-113242500D02*
X154800800Y-113242500D01*
X154800800Y-113342500D02*
X154800800Y-113342500D01*
D11*
X155200800Y-114442500D02*
X155200800Y-114842500D01*
X154400800Y-114442500D02*
X154400800Y-114842500D01*
D15*
X154800800Y-113342500D02*
G75*
G03*
X154800800Y-113242500I0J50000D01*
G01*
X154800800Y-113242500D02*
G75*
G03*
X154800800Y-113342500I0J-50000D01*
G01*
D11*
X191051200Y-122932500D02*
G75*
G03*
X191051200Y-122932500I-50000J0D01*
G01*
X157773300Y-124707500D02*
X157773300Y-124707500D01*
X157773300Y-124507500D02*
X157773300Y-124507500D01*
X155873300Y-125407500D02*
X154073300Y-125407500D01*
X155873300Y-123807500D02*
X154073300Y-123807500D01*
X157773300Y-124507500D02*
G75*
G03*
X157773300Y-124707500I0J-100000D01*
G01*
X157773300Y-124707500D02*
G75*
G03*
X157773300Y-124507500I0J100000D01*
G01*
X136255800Y-120792500D02*
G75*
G03*
X136255800Y-120792500I-50000J0D01*
G01*
X127775800Y-101982500D02*
G75*
G03*
X127775800Y-101982500I-50000J0D01*
G01*
X214011600Y-103100000D02*
G75*
G03*
X214011600Y-103100000I-50000J0D01*
G01*
X208271200Y-103100000D02*
G75*
G03*
X208271200Y-103100000I-50000J0D01*
G01*
X196790400Y-103100000D02*
G75*
G03*
X196790400Y-103100000I-50000J0D01*
G01*
X144350800Y-98832500D02*
X144350800Y-98832500D01*
X144550800Y-98832500D02*
X144550800Y-98832500D01*
D15*
X146350800Y-98232500D02*
X151150800Y-98232500D01*
X146350800Y-99432500D02*
X146350800Y-101632500D01*
X146350800Y-103032500D02*
X151150800Y-103032500D01*
X151150800Y-99432500D02*
X151150800Y-101632500D01*
D11*
X144550800Y-98832500D02*
G75*
G03*
X144350800Y-98832500I-100000J0D01*
G01*
X144350800Y-98832500D02*
G75*
G03*
X144550800Y-98832500I100000J0D01*
G01*
X140188300Y-90422500D02*
G75*
G03*
X140188300Y-90422500I-50000J0D01*
G01*
X202530800Y-103100000D02*
G75*
G03*
X202530800Y-103100000I-50000J0D01*
G01*
X214020800Y-122965000D02*
G75*
G03*
X214020800Y-122965000I-50000J0D01*
G01*
X171460800Y-121132500D02*
G75*
G03*
X171460800Y-121132500I-50000J0D01*
G01*
X166040800Y-100452500D02*
X168340800Y-100452500D01*
D16*
X152760800Y-68682500D02*
X180160800Y-68682500D01*
X152760800Y-95982500D02*
X152760800Y-68682500D01*
X153182800Y-71977500D02*
X176282800Y-71977500D01*
X153182800Y-88577500D02*
X153182800Y-71977500D01*
X161461800Y-69171500D02*
X161461800Y-71584500D01*
X161461800Y-69171500D02*
X171240800Y-69171500D01*
X171240800Y-69171500D02*
X171240800Y-71584500D01*
X171240800Y-71584500D02*
X161461800Y-71584500D01*
X176282800Y-71977500D02*
X179368800Y-71977500D01*
X176282800Y-88577500D02*
X153182800Y-88577500D01*
X176282800Y-88577500D02*
X179622800Y-88602500D01*
X179622800Y-71965500D02*
X179368800Y-71977500D01*
X179622800Y-88602500D02*
X179622800Y-71965500D01*
X180160800Y-68682500D02*
X180160800Y-95982500D01*
X180160800Y-95982500D02*
X152760800Y-95982500D01*
D11*
X177070800Y-111662500D02*
X177070800Y-113962500D01*
X161210800Y-108132500D02*
G75*
G03*
X161210800Y-108132500I-50000J0D01*
G01*
D15*
X143643300Y-133767500D02*
X143643300Y-133767500D01*
X143643300Y-133767500D02*
X143643300Y-136177500D01*
X143643300Y-136177500D02*
X143643300Y-133767500D01*
X143643300Y-136177500D02*
X143643300Y-136177500D01*
X143643300Y-136222500D02*
X143643300Y-136222500D01*
X143643300Y-136222500D02*
X146183300Y-136222500D01*
D11*
X144683300Y-131472500D02*
X144683300Y-131472500D01*
X144683300Y-131472500D02*
X144683300Y-131472500D01*
X144783300Y-131472500D02*
X144783300Y-131472500D01*
D15*
X146183300Y-133767500D02*
X146183300Y-133767500D01*
X146183300Y-133767500D02*
X148723300Y-133767500D01*
X146183300Y-136222500D02*
X143643300Y-136222500D01*
X146183300Y-136222500D02*
X146183300Y-136222500D01*
X148723300Y-133767500D02*
X146183300Y-133767500D01*
X148723300Y-133767500D02*
X148723300Y-133767500D01*
X148723300Y-133767500D02*
X148723300Y-133767500D01*
X148723300Y-133767500D02*
X148723300Y-136177500D01*
X148723300Y-136177500D02*
X148723300Y-133767500D01*
X148723300Y-136177500D02*
X148723300Y-136177500D01*
D11*
X144783300Y-131472500D02*
G75*
G03*
X144683300Y-131472500I-50000J0D01*
G01*
X144683300Y-131472500D02*
G75*
G03*
X144783300Y-131472500I50000J0D01*
G01*
X144683300Y-131472500D02*
G75*
G03*
X144783300Y-131472500I50000J0D01*
G01*
X151360800Y-113092500D02*
G75*
G03*
X151360800Y-113092500I-50000J0D01*
G01*
X140400800Y-106777500D02*
G75*
G03*
X140400800Y-106777500I-50000J0D01*
G01*
X114755800Y-108232500D02*
G75*
G03*
X114755800Y-108232500I-50000J0D01*
G01*
X137613300Y-133757500D02*
G75*
G03*
X137613300Y-133757500I-50000J0D01*
G01*
D15*
X145580800Y-105602500D02*
X145580800Y-105602500D01*
X145580800Y-105702500D02*
X145580800Y-105702500D01*
D11*
X145980800Y-106802500D02*
X145980800Y-107202500D01*
X145180800Y-106802500D02*
X145180800Y-107202500D01*
D15*
X145580800Y-105702500D02*
G75*
G03*
X145580800Y-105602500I0J50000D01*
G01*
X145580800Y-105602500D02*
G75*
G03*
X145580800Y-105702500I0J-50000D01*
G01*
D11*
X149310800Y-105227500D02*
X149310800Y-105227500D01*
X149110800Y-105227500D02*
X149110800Y-105227500D01*
X150010800Y-107127500D02*
X150010800Y-108927500D01*
X148410800Y-107127500D02*
X148410800Y-108927500D01*
X149110800Y-105227500D02*
G75*
G03*
X149310800Y-105227500I100000J0D01*
G01*
X149310800Y-105227500D02*
G75*
G03*
X149110800Y-105227500I-100000J0D01*
G01*
D16*
X125705800Y-108712500D02*
X125435800Y-108712500D01*
X125435800Y-108712500D02*
X125435800Y-105882500D01*
X119075800Y-108712500D02*
X119075800Y-107612500D01*
X118805800Y-108712500D02*
X119075800Y-108712500D01*
X125705800Y-115132500D02*
X125705800Y-108712500D01*
X118805800Y-115132500D02*
X118805800Y-108712500D01*
D11*
X191791200Y-84510000D02*
G75*
G03*
X191791200Y-84510000I-50000J0D01*
G01*
X196780800Y-122935000D02*
G75*
G03*
X196780800Y-122935000I-50000J0D01*
G01*
X185278600Y-103108400D02*
G75*
G03*
X185278600Y-103108400I-50000J0D01*
G01*
D15*
X161753300Y-133727500D02*
X161753300Y-133727500D01*
X161753300Y-133727500D02*
X161753300Y-136137500D01*
X161753300Y-136137500D02*
X161753300Y-133727500D01*
X161753300Y-136137500D02*
X161753300Y-136137500D01*
X161753300Y-136182500D02*
X161753300Y-136182500D01*
X161753300Y-136182500D02*
X164293300Y-136182500D01*
D11*
X162793300Y-131432500D02*
X162793300Y-131432500D01*
X162793300Y-131432500D02*
X162793300Y-131432500D01*
X162893300Y-131432500D02*
X162893300Y-131432500D01*
D15*
X164293300Y-133727500D02*
X164293300Y-133727500D01*
X164293300Y-133727500D02*
X166833300Y-133727500D01*
X164293300Y-136182500D02*
X161753300Y-136182500D01*
X164293300Y-136182500D02*
X164293300Y-136182500D01*
X166833300Y-133727500D02*
X164293300Y-133727500D01*
X166833300Y-133727500D02*
X166833300Y-133727500D01*
X166833300Y-133727500D02*
X166833300Y-133727500D01*
X166833300Y-133727500D02*
X166833300Y-136137500D01*
X166833300Y-136137500D02*
X166833300Y-133727500D01*
X166833300Y-136137500D02*
X166833300Y-136137500D01*
D11*
X162893300Y-131432500D02*
G75*
G03*
X162793300Y-131432500I-50000J0D01*
G01*
X162793300Y-131432500D02*
G75*
G03*
X162893300Y-131432500I50000J0D01*
G01*
X162793300Y-131432500D02*
G75*
G03*
X162893300Y-131432500I50000J0D01*
G01*
D15*
X152743300Y-133767500D02*
X152743300Y-133767500D01*
X152743300Y-133767500D02*
X152743300Y-136177500D01*
X152743300Y-136177500D02*
X152743300Y-133767500D01*
X152743300Y-136177500D02*
X152743300Y-136177500D01*
X152743300Y-136222500D02*
X152743300Y-136222500D01*
X152743300Y-136222500D02*
X155283300Y-136222500D01*
D11*
X153783300Y-131472500D02*
X153783300Y-131472500D01*
X153783300Y-131472500D02*
X153783300Y-131472500D01*
X153883300Y-131472500D02*
X153883300Y-131472500D01*
D15*
X155283300Y-133767500D02*
X155283300Y-133767500D01*
X155283300Y-133767500D02*
X157823300Y-133767500D01*
X155283300Y-136222500D02*
X152743300Y-136222500D01*
X155283300Y-136222500D02*
X155283300Y-136222500D01*
X157823300Y-133767500D02*
X155283300Y-133767500D01*
X157823300Y-133767500D02*
X157823300Y-133767500D01*
X157823300Y-133767500D02*
X157823300Y-133767500D01*
X157823300Y-133767500D02*
X157823300Y-136177500D01*
X157823300Y-136177500D02*
X157823300Y-133767500D01*
X157823300Y-136177500D02*
X157823300Y-136177500D01*
D11*
X153883300Y-131472500D02*
G75*
G03*
X153783300Y-131472500I-50000J0D01*
G01*
X153783300Y-131472500D02*
G75*
G03*
X153883300Y-131472500I50000J0D01*
G01*
X153783300Y-131472500D02*
G75*
G03*
X153883300Y-131472500I50000J0D01*
G01*
X164640800Y-109282500D02*
X164640800Y-106982500D01*
D15*
X178213300Y-136257500D02*
X178213300Y-133847500D01*
X178213300Y-133847500D02*
X175903300Y-133847500D01*
D11*
X176903300Y-138352500D02*
X176903300Y-138352500D01*
X176903300Y-138152500D02*
X176903300Y-138152500D01*
D15*
X175403300Y-136257500D02*
X172903300Y-136257500D01*
X172903300Y-133847500D02*
X170593300Y-133847500D01*
X170593300Y-133847500D02*
X170593300Y-136257500D01*
D11*
X176903300Y-138152500D02*
G75*
G03*
X176903300Y-138352500I0J-100000D01*
G01*
X176903300Y-138352500D02*
G75*
G03*
X176903300Y-138152500I0J100000D01*
G01*
D16*
X205851200Y-92650000D02*
X194591200Y-92650000D01*
X205851200Y-91490000D02*
X205851200Y-92650000D01*
X205851200Y-88240000D02*
X205851200Y-82640000D01*
X193091200Y-92650000D02*
X192981200Y-92650000D01*
X192981200Y-92650000D02*
X192981200Y-90840000D01*
X192981200Y-88940000D02*
X192981200Y-82640000D01*
D11*
X164600800Y-100632500D02*
G75*
G03*
X164600800Y-100632500I-50000J0D01*
G01*
D16*
X129685800Y-127862500D02*
X129685800Y-127592500D01*
X129685800Y-127592500D02*
X132515800Y-127592500D01*
X129685800Y-121232500D02*
X130785800Y-121232500D01*
X129685800Y-120962500D02*
X129685800Y-121232500D01*
X123265800Y-127862500D02*
X129685800Y-127862500D01*
X123265800Y-120962500D02*
X129685800Y-120962500D01*
D11*
X140140800Y-114432500D02*
X140140800Y-114432500D01*
X140340800Y-114432500D02*
X140340800Y-114432500D01*
D15*
X142140800Y-113832500D02*
X146940800Y-113832500D01*
X142140800Y-115032500D02*
X142140800Y-117232500D01*
X142140800Y-118632500D02*
X146940800Y-118632500D01*
X146940800Y-115032500D02*
X146940800Y-117232500D01*
D11*
X140340800Y-114432500D02*
G75*
G03*
X140140800Y-114432500I-100000J0D01*
G01*
X140140800Y-114432500D02*
G75*
G03*
X140340800Y-114432500I100000J0D01*
G01*
X178800800Y-100952500D02*
X178800800Y-103252500D01*
X143160800Y-120897500D02*
G75*
G03*
X143160800Y-120897500I-50000J0D01*
G01*
X191050000Y-103100000D02*
G75*
G03*
X191050000Y-103100000I-50000J0D01*
G01*
X117485800Y-121632500D02*
G75*
G03*
X117485800Y-121632500I-50000J0D01*
G01*
X208280800Y-122965000D02*
G75*
G03*
X208280800Y-122965000I-50000J0D01*
G01*
X160510300Y-120127500D02*
X161985300Y-120127500D01*
X162335300Y-120152500D02*
X166035300Y-120152500D01*
X162335300Y-125152500D02*
X162335300Y-120152500D01*
X166035300Y-120152500D02*
X166035300Y-125152500D01*
X166035300Y-125152500D02*
X162335300Y-125152500D01*
X134205800Y-114482500D02*
G75*
G03*
X134205800Y-114482500I-50000J0D01*
G01*
X192016200Y-90045000D02*
G75*
G03*
X192016200Y-90045000I-50000J0D01*
G01*
%LPC*%
D17*
X166110800Y-115712500D03*
X172760800Y-115712500D03*
D18*
X124880800Y-91602500D03*
X110880800Y-69402500D03*
X96880800Y-91602500D03*
D19*
X85980800Y-74152500D03*
D20*
X85980800Y-86852500D03*
D21*
X156698300Y-120707500D03*
X153248300Y-120707500D03*
D17*
X172760800Y-126612500D03*
X179410800Y-126612500D03*
D22*
X185220800Y-121582500D03*
X185220800Y-114932500D03*
D23*
X168983300Y-104132500D03*
X168983300Y-104632500D03*
X168983300Y-105132500D03*
X168983300Y-105632500D03*
X168983300Y-106132500D03*
X168983300Y-106632500D03*
X168983300Y-107132500D03*
X168983300Y-107632500D03*
X168983300Y-108132500D03*
X168983300Y-108632500D03*
X168983300Y-109132500D03*
X168983300Y-109632500D03*
D24*
X169670800Y-110320000D03*
X170170800Y-110320000D03*
X170670800Y-110320000D03*
X171170800Y-110320000D03*
X171670800Y-110320000D03*
X172170800Y-110320000D03*
X172670800Y-110320000D03*
X173170800Y-110320000D03*
X173670800Y-110320000D03*
X174170800Y-110320000D03*
X174670800Y-110320000D03*
X175170800Y-110320000D03*
D23*
X175858300Y-109632500D03*
X175858300Y-109132500D03*
X175858300Y-108632500D03*
X175858300Y-108132500D03*
X175858300Y-107632500D03*
X175858300Y-107132500D03*
X175858300Y-106632500D03*
X175858300Y-106132500D03*
X175858300Y-105632500D03*
X175858300Y-105132500D03*
X175858300Y-104632500D03*
X175858300Y-104132500D03*
D24*
X175170800Y-103445000D03*
X174670800Y-103445000D03*
X174170800Y-103445000D03*
X173670800Y-103445000D03*
X173170800Y-103445000D03*
X172670800Y-103445000D03*
X172170800Y-103445000D03*
X171670800Y-103445000D03*
X171170800Y-103445000D03*
X170670800Y-103445000D03*
X170170800Y-103445000D03*
X169670800Y-103445000D03*
D25*
X172420800Y-106882500D03*
D22*
X129075800Y-113632500D03*
X129075800Y-106982500D03*
D17*
X141488300Y-84172500D03*
X148138300Y-84172500D03*
D26*
X154800800Y-113942500D03*
X154800800Y-115342500D03*
D22*
X191001200Y-121582500D03*
X191001200Y-114932500D03*
D27*
X212030800Y-70982500D03*
D21*
X156698300Y-124607500D03*
X153248300Y-124607500D03*
D22*
X136205800Y-122142500D03*
X136205800Y-128792500D03*
D17*
X129075800Y-101982500D03*
X135725800Y-101982500D03*
D28*
X213961600Y-102000000D03*
X213961600Y-97200000D03*
X208221200Y-102000000D03*
X208221200Y-97200000D03*
X196740400Y-102000000D03*
X196740400Y-97200000D03*
D29*
X145750800Y-98782500D03*
X151750800Y-98782500D03*
X145750800Y-102482500D03*
X151750800Y-102482500D03*
D17*
X141488300Y-90422500D03*
X148138300Y-90422500D03*
D28*
X202480800Y-102000000D03*
X202480800Y-97200000D03*
D22*
X213970800Y-121615000D03*
X213970800Y-114965000D03*
D17*
X172760800Y-121132500D03*
X179410800Y-121132500D03*
D30*
X167190800Y-101852500D03*
X167190800Y-99052500D03*
D31*
X155360800Y-70282500D03*
X155360800Y-94382500D03*
X177460800Y-70282500D03*
X177560800Y-94382500D03*
D32*
X162540800Y-70382500D03*
X165080800Y-70382500D03*
X167620800Y-70382500D03*
X170160800Y-70382500D03*
D33*
X175670800Y-112812500D03*
X178470800Y-112812500D03*
D34*
X159910800Y-108132500D03*
X154410800Y-108132500D03*
D35*
X144913300Y-133257500D03*
X147453300Y-136687500D03*
D36*
X151310800Y-113942500D03*
X151310800Y-116942500D03*
D22*
X140350800Y-105427500D03*
X140350800Y-98777500D03*
D37*
X114705800Y-106982500D03*
X114705800Y-101482500D03*
D17*
X136213300Y-133757500D03*
X129563300Y-133757500D03*
D26*
X145580800Y-106302500D03*
X145580800Y-107702500D03*
D38*
X149210800Y-106302500D03*
X149210800Y-109752500D03*
D39*
X124535800Y-106982500D03*
D40*
X122255800Y-113282500D03*
D39*
X119975800Y-106982500D03*
D41*
X190891200Y-84510000D03*
X187891200Y-84510000D03*
D22*
X196730800Y-121585000D03*
X196730800Y-114935000D03*
D28*
X185228600Y-102008400D03*
X185228600Y-97208400D03*
D35*
X163023300Y-133217500D03*
X165563300Y-136647500D03*
X154013300Y-133257500D03*
X156553300Y-136687500D03*
D33*
X166040800Y-108132500D03*
X163240800Y-108132500D03*
D35*
X176943300Y-136767500D03*
X174403300Y-133337500D03*
X171863300Y-136767500D03*
D42*
X196241200Y-81515000D03*
X197341200Y-81515000D03*
X198441200Y-81515000D03*
X199541200Y-81515000D03*
X200641200Y-81515000D03*
X201741200Y-81515000D03*
X202841200Y-81515000D03*
X203941200Y-81515000D03*
D43*
X205066200Y-90740000D03*
D44*
X193841200Y-92315000D03*
D45*
X205391200Y-89240000D03*
D46*
X205141200Y-81640000D03*
D47*
X193791200Y-81640000D03*
D48*
X193441200Y-89890000D03*
D49*
X163300800Y-100632500D03*
X158000800Y-100632500D03*
D50*
X131415800Y-126692500D03*
D51*
X125115800Y-124412500D03*
D50*
X131415800Y-122132500D03*
D29*
X141540800Y-114382500D03*
X147540800Y-114382500D03*
X141540800Y-118082500D03*
X147540800Y-118082500D03*
D33*
X177400800Y-102102500D03*
X180200800Y-102102500D03*
D37*
X143110800Y-122147500D03*
X143110800Y-127647500D03*
D28*
X191000000Y-102000000D03*
X191000000Y-97200000D03*
D37*
X117435800Y-122882500D03*
X117435800Y-128382500D03*
D22*
X208230800Y-121615000D03*
X208230800Y-114965000D03*
D52*
X161247300Y-120702500D03*
X161247300Y-121352500D03*
X161247300Y-122002500D03*
X161247300Y-122652500D03*
X161247300Y-123302500D03*
X161247300Y-123952500D03*
X161247300Y-124602500D03*
X167123300Y-124602500D03*
X167123300Y-123952500D03*
X167123300Y-123302500D03*
X167123300Y-122652500D03*
X167123300Y-122002500D03*
X167123300Y-121352500D03*
X167123300Y-120702500D03*
D36*
X134155800Y-113632500D03*
X134155800Y-110632500D03*
D27*
X87030800Y-133482500D03*
D49*
X190716200Y-90045000D03*
X185416200Y-90045000D03*
%LPD*%
M02*
