G04 #@! TF.GenerationSoftware,KiCad,Pcbnew,7.0.2*
G04 #@! TF.CreationDate,2023-06-26T18:45:37-03:00*
G04 #@! TF.ProjectId,ProjetoFinalSEMB,50726f6a-6574-46f4-9669-6e616c53454d,rev?*
G04 #@! TF.SameCoordinates,Original*
G04 #@! TF.FileFunction,Soldermask,Top*
G04 #@! TF.FilePolarity,Negative*
%FSLAX46Y46*%
G04 Gerber Fmt 4.6, Leading zero omitted, Abs format (unit mm)*
G04 Created by KiCad (PCBNEW 7.0.2) date 2023-06-26 18:45:37*
%MOMM*%
%LPD*%
G01*
G04 APERTURE LIST*
G04 Aperture macros list*
%AMRoundRect*
0 Rectangle with rounded corners*
0 $1 Rounding radius*
0 $2 $3 $4 $5 $6 $7 $8 $9 X,Y pos of 4 corners*
0 Add a 4 corners polygon primitive as box body*
4,1,4,$2,$3,$4,$5,$6,$7,$8,$9,$2,$3,0*
0 Add four circle primitives for the rounded corners*
1,1,$1+$1,$2,$3*
1,1,$1+$1,$4,$5*
1,1,$1+$1,$6,$7*
1,1,$1+$1,$8,$9*
0 Add four rect primitives between the rounded corners*
20,1,$1+$1,$2,$3,$4,$5,0*
20,1,$1+$1,$4,$5,$6,$7,0*
20,1,$1+$1,$6,$7,$8,$9,0*
20,1,$1+$1,$8,$9,$2,$3,0*%
G04 Aperture macros list end*
%ADD10R,1.450000X2.900000*%
%ADD11C,2.600000*%
%ADD12R,3.600000X3.600000*%
%ADD13C,3.600000*%
%ADD14R,1.250000X1.500000*%
%ADD15R,2.900000X1.450000*%
%ADD16RoundRect,0.062500X-0.375000X-0.062500X0.375000X-0.062500X0.375000X0.062500X-0.375000X0.062500X0*%
%ADD17RoundRect,0.062500X-0.062500X-0.375000X0.062500X-0.375000X0.062500X0.375000X-0.062500X0.375000X0*%
%ADD18R,5.600000X5.600000*%
%ADD19R,0.600000X0.500000*%
%ADD20C,3.200000*%
%ADD21R,2.900000X1.300000*%
%ADD22R,1.000000X0.700000*%
%ADD23R,2.720000X1.020000*%
%ADD24O,4.680000X2.690000*%
%ADD25O,1.600000X2.000000*%
%ADD26R,1.020000X2.720000*%
%ADD27R,1.900000X5.400000*%
%ADD28R,1.270000X2.030000*%
%ADD29R,1.800000X1.150000*%
%ADD30R,5.400000X1.900000*%
%ADD31R,1.500000X1.250000*%
%ADD32RoundRect,0.250000X-0.350000X0.850000X-0.350000X-0.850000X0.350000X-0.850000X0.350000X0.850000X0*%
%ADD33RoundRect,0.249997X-2.650003X2.950003X-2.650003X-2.950003X2.650003X-2.950003X2.650003X2.950003X0*%
%ADD34R,1.150000X1.800000*%
%ADD35R,0.700000X1.750000*%
%ADD36R,1.450000X1.000000*%
%ADD37R,1.000000X1.550000*%
%ADD38R,0.800000X1.500000*%
%ADD39R,1.300000X1.500000*%
%ADD40R,1.500000X1.500000*%
%ADD41R,0.800000X1.400000*%
%ADD42R,1.500000X5.400000*%
%ADD43RoundRect,0.250000X0.850000X0.350000X-0.850000X0.350000X-0.850000X-0.350000X0.850000X-0.350000X0*%
%ADD44RoundRect,0.249997X2.950003X2.650003X-2.950003X2.650003X-2.950003X-2.650003X2.950003X-2.650003X0*%
%ADD45R,1.475000X0.450000*%
G04 APERTURE END LIST*
D10*
X166110800Y-115712500D03*
X172760800Y-115712500D03*
D11*
X124880800Y-91602500D03*
X110880800Y-69402500D03*
X96880800Y-91602500D03*
D12*
X85980800Y-74152500D03*
D13*
X85980800Y-86852500D03*
D14*
X156698300Y-120707500D03*
X153248300Y-120707500D03*
D10*
X172760800Y-126612500D03*
X179410800Y-126612500D03*
D15*
X185220800Y-121582500D03*
X185220800Y-114932500D03*
D16*
X168983300Y-104132500D03*
X168983300Y-104632500D03*
X168983300Y-105132500D03*
X168983300Y-105632500D03*
X168983300Y-106132500D03*
X168983300Y-106632500D03*
X168983300Y-107132500D03*
X168983300Y-107632500D03*
X168983300Y-108132500D03*
X168983300Y-108632500D03*
X168983300Y-109132500D03*
X168983300Y-109632500D03*
D17*
X169670800Y-110320000D03*
X170170800Y-110320000D03*
X170670800Y-110320000D03*
X171170800Y-110320000D03*
X171670800Y-110320000D03*
X172170800Y-110320000D03*
X172670800Y-110320000D03*
X173170800Y-110320000D03*
X173670800Y-110320000D03*
X174170800Y-110320000D03*
X174670800Y-110320000D03*
X175170800Y-110320000D03*
D16*
X175858300Y-109632500D03*
X175858300Y-109132500D03*
X175858300Y-108632500D03*
X175858300Y-108132500D03*
X175858300Y-107632500D03*
X175858300Y-107132500D03*
X175858300Y-106632500D03*
X175858300Y-106132500D03*
X175858300Y-105632500D03*
X175858300Y-105132500D03*
X175858300Y-104632500D03*
X175858300Y-104132500D03*
D17*
X175170800Y-103445000D03*
X174670800Y-103445000D03*
X174170800Y-103445000D03*
X173670800Y-103445000D03*
X173170800Y-103445000D03*
X172670800Y-103445000D03*
X172170800Y-103445000D03*
X171670800Y-103445000D03*
X171170800Y-103445000D03*
X170670800Y-103445000D03*
X170170800Y-103445000D03*
X169670800Y-103445000D03*
D18*
X172420800Y-106882500D03*
D15*
X129075800Y-113632500D03*
X129075800Y-106982500D03*
D10*
X141488300Y-84172500D03*
X148138300Y-84172500D03*
D19*
X154800800Y-113942500D03*
X154800800Y-115342500D03*
D15*
X191001200Y-121582500D03*
X191001200Y-114932500D03*
D20*
X212030800Y-70982500D03*
D14*
X156698300Y-124607500D03*
X153248300Y-124607500D03*
D15*
X136205800Y-122142500D03*
X136205800Y-128792500D03*
D10*
X129075800Y-101982500D03*
X135725800Y-101982500D03*
D21*
X213961600Y-102000000D03*
X213961600Y-97200000D03*
X208221200Y-102000000D03*
X208221200Y-97200000D03*
X196740400Y-102000000D03*
X196740400Y-97200000D03*
D22*
X145750800Y-98782500D03*
X151750800Y-98782500D03*
X145750800Y-102482500D03*
X151750800Y-102482500D03*
D10*
X141488300Y-90422500D03*
X148138300Y-90422500D03*
D21*
X202480800Y-102000000D03*
X202480800Y-97200000D03*
D15*
X213970800Y-121615000D03*
X213970800Y-114965000D03*
D10*
X172760800Y-121132500D03*
X179410800Y-121132500D03*
D23*
X167190800Y-101852500D03*
X167190800Y-99052500D03*
D24*
X155360800Y-70282500D03*
X155360800Y-94382500D03*
X177460800Y-70282500D03*
X177560800Y-94382500D03*
D25*
X162540800Y-70382500D03*
X165080800Y-70382500D03*
X167620800Y-70382500D03*
X170160800Y-70382500D03*
D26*
X175670800Y-112812500D03*
X178470800Y-112812500D03*
D27*
X159910800Y-108132500D03*
X154410800Y-108132500D03*
D28*
X144913300Y-133257500D03*
X147453300Y-136687500D03*
D29*
X151310800Y-113942500D03*
X151310800Y-116942500D03*
D15*
X140350800Y-105427500D03*
X140350800Y-98777500D03*
D30*
X114705800Y-106982500D03*
X114705800Y-101482500D03*
D10*
X136213300Y-133757500D03*
X129563300Y-133757500D03*
D19*
X145580800Y-106302500D03*
X145580800Y-107702500D03*
D31*
X149210800Y-106302500D03*
X149210800Y-109752500D03*
D32*
X124535800Y-106982500D03*
D33*
X122255800Y-113282500D03*
D32*
X119975800Y-106982500D03*
D34*
X190891200Y-84510000D03*
X187891200Y-84510000D03*
D15*
X196730800Y-121585000D03*
X196730800Y-114935000D03*
D21*
X185228600Y-102008400D03*
X185228600Y-97208400D03*
D28*
X163023300Y-133217500D03*
X165563300Y-136647500D03*
X154013300Y-133257500D03*
X156553300Y-136687500D03*
D26*
X166040800Y-108132500D03*
X163240800Y-108132500D03*
D28*
X176943300Y-136767500D03*
X174403300Y-133337500D03*
X171863300Y-136767500D03*
D35*
X196241200Y-81515000D03*
X197341200Y-81515000D03*
X198441200Y-81515000D03*
X199541200Y-81515000D03*
X200641200Y-81515000D03*
X201741200Y-81515000D03*
X202841200Y-81515000D03*
X203941200Y-81515000D03*
D36*
X205066200Y-90740000D03*
D37*
X193841200Y-92315000D03*
D38*
X205391200Y-89240000D03*
D39*
X205141200Y-81640000D03*
D40*
X193791200Y-81640000D03*
D41*
X193441200Y-89890000D03*
D42*
X163300800Y-100632500D03*
X158000800Y-100632500D03*
D43*
X131415800Y-126692500D03*
D44*
X125115800Y-124412500D03*
D43*
X131415800Y-122132500D03*
D22*
X141540800Y-114382500D03*
X147540800Y-114382500D03*
X141540800Y-118082500D03*
X147540800Y-118082500D03*
D26*
X177400800Y-102102500D03*
X180200800Y-102102500D03*
D30*
X143110800Y-122147500D03*
X143110800Y-127647500D03*
D21*
X191000000Y-102000000D03*
X191000000Y-97200000D03*
D30*
X117435800Y-122882500D03*
X117435800Y-128382500D03*
D15*
X208230800Y-121615000D03*
X208230800Y-114965000D03*
D45*
X161247300Y-120702500D03*
X161247300Y-121352500D03*
X161247300Y-122002500D03*
X161247300Y-122652500D03*
X161247300Y-123302500D03*
X161247300Y-123952500D03*
X161247300Y-124602500D03*
X167123300Y-124602500D03*
X167123300Y-123952500D03*
X167123300Y-123302500D03*
X167123300Y-122652500D03*
X167123300Y-122002500D03*
X167123300Y-121352500D03*
X167123300Y-120702500D03*
D29*
X134155800Y-113632500D03*
X134155800Y-110632500D03*
D20*
X87030800Y-133482500D03*
D42*
X190716200Y-90045000D03*
X185416200Y-90045000D03*
M02*
